<?xml version="1.0" standalone="no"?><!DOCTYPE svg PUBLIC "-//W3C//DTD SVG 1.1//EN" "http://www.w3.org/Graphics/SVG/1.1/DTD/svg11.dtd"><svg t="1527772148773" class="icon" style="" viewBox="0 0 1024 1024" version="1.1" xmlns="http://www.w3.org/2000/svg" p-id="1479" xmlns:xlink="http://www.w3.org/1999/xlink" width="32" height="32"><defs><style type="text/css"></style></defs><path d="M928.448 426.208c0-83.36-24.992-160.832-67.712-225.568-30.624-2.624-49.856 9.92-61.888 27.52 37.088 54.432 58.816 120.16 58.816 191.008 0 87.904-33.696 167.808-88.512 228.16 0.448 0.48 0.384 0.992-0.928 1.6-0.32 0.128-0.736 0.416-1.088 0.608-11.168 12.064-22.976 23.456-35.744 33.792-61.312 67.84-168.128 210.4-168.128 210.4-17.568 20.512-45.408 0-45.408 0-8.256-25.888-129.824-137.376-200.416-200.576-17.088-12.544-33.024-26.624-47.488-42.08-1.536-1.344-2.4-2.112-2.4-2.112s0.384 0 0.48 0c-55.68-60.544-89.92-140.992-89.92-229.696 0-187.648 152.128-339.744 339.744-339.744 79.36 0 152.192 27.424 210.016 73.056 22.688-10.624 35.392-30.88 42.272-49.568-69.664-54.432-157.088-87.136-252.32-87.136-226.72 0-410.528 183.808-410.528 410.528 0 107.2 41.408 204.448 108.672 277.568-0.128 0-0.608 0-0.608 0s1.088 0.928 2.912 2.56c17.504 18.688 36.704 35.712 57.376 50.848 85.312 76.384 232.16 211.104 242.176 242.368 0 0 33.632 24.768 54.88 0 0 0 129.088-172.224 203.136-254.208 15.424-12.48 29.696-26.272 43.168-40.832 0.416-0.192 0.896-0.576 1.28-0.736 1.568-0.672 1.664-1.344 1.12-1.888 66.272-72.992 107.008-169.472 107.008-275.744zM351.552 449.472c0 91.872 74.464 166.336 166.336 166.336s166.336-74.464 166.336-166.336-74.496-166.336-166.336-166.336-166.336 74.464-166.336 166.336zM599.168 449.472c0 44.896-36.384 81.28-81.28 81.28s-81.28-36.384-81.28-81.28 36.384-81.28 81.28-81.28 81.28 36.384 81.28 81.28z" p-id="1480" fill="#ff5722"></path></svg>