<?xml version="1.0" standalone="no"?><!DOCTYPE svg PUBLIC "-//W3C//DTD SVG 1.1//EN" "http://www.w3.org/Graphics/SVG/1.1/DTD/svg11.dtd"><svg t="1527790393379" class="icon" style="" viewBox="0 0 1024 1024" version="1.1" xmlns="http://www.w3.org/2000/svg" p-id="3399" xmlns:xlink="http://www.w3.org/1999/xlink" width="32" height="32"><defs><style type="text/css"></style></defs><path d="M279.49018 790.786186a24.383771 24.383771 0 0 1-17.343838-7.103933L32.516495 554.052406a60.79943 60.79943 0 0 1 0-86.143193l229.629847-229.629847a24.51177 24.51177 0 0 1 34.431678 0 24.51177 24.51177 0 0 1 0 34.431677L66.884173 502.340891a12.351884 12.351884 0 0 0 0 17.343837l229.629847 229.629847a24.447771 24.447771 0 0 1 0 34.367678 24.127774 24.127774 0 0 1-17.02384 7.103933z" fill="#ff5722" p-id="3400"></path><path d="M668.79853 535.300582H84.676006a24.127774 24.127774 0 0 1-24.255772-24.255773c0-13.375875 10.751899-24.255773 24.255772-24.255773h584.122524a24.319772 24.319772 0 0 1 24.255773 24.255773 24.319772 24.319772 0 0 1-24.255773 24.255773z" fill="#ff5722" p-id="3401"></path><path d="M839.036934 1022.016019H303.745952c-100.28706 0-170.238404-101.119052-170.238404-191.870202a24.319772 24.319772 0 1 1 48.767543 0c0 67.647366 51.967513 143.166658 121.406862 143.166658h535.290982c67.007372 0 121.59886-54.591488 121.59886-121.662859V168.712018A120.190873 120.190873 0 0 0 840.50892 48.713143H303.745952c-67.263369 0-118.334891 48.959541-121.662859 114.942923a8.51192 8.51192 0 0 1 0.255998 2.623975l-0.255998 5.119952-48.767543-1.02399A168.51042 168.51042 0 0 1 303.745952 0.0096h536.890967a168.830417 168.830417 0 0 1 168.702418 168.702418v682.937598a170.6224 170.6224 0 0 1-170.302403 170.366403z" fill="#ff5722" p-id="3402"></path></svg>