<?xml version="1.0" standalone="no"?><!DOCTYPE svg PUBLIC "-//W3C//DTD SVG 1.1//EN" "http://www.w3.org/Graphics/SVG/1.1/DTD/svg11.dtd"><svg t="1527794497168" class="icon" style="" viewBox="0 0 1024 1024" version="1.1" xmlns="http://www.w3.org/2000/svg" p-id="5150" xmlns:xlink="http://www.w3.org/1999/xlink" width="32" height="32"><defs><style type="text/css"></style></defs><path d="M481.834667 545.834667A42.538667 42.538667 0 0 1 512 533.333333a128 128 0 1 0-128-128 42.666667 42.666667 0 0 1-85.333333 0 213.333333 213.333333 0 1 1 256 209.066667v46.933333a42.666667 42.666667 0 0 1-85.333334 0v-85.333333c0-11.776 4.778667-22.442667 12.501334-30.165333zM512 1024C229.248 1024 0 794.752 0 512S229.248 0 512 0s512 229.248 512 512-229.248 512-512 512z m0-85.333333c235.648 0 426.666667-191.018667 426.666667-426.666667S747.648 85.333333 512 85.333333 85.333333 276.352 85.333333 512s191.018667 426.666667 426.666667 426.666667z m0-106.666667a42.666667 42.666667 0 1 1 0-85.333333 42.666667 42.666667 0 0 1 0 85.333333z" p-id="5151" fill="#ff5722"></path></svg>