<?xml version="1.0" standalone="no"?><!DOCTYPE svg PUBLIC "-//W3C//DTD SVG 1.1//EN" "http://www.w3.org/Graphics/SVG/1.1/DTD/svg11.dtd"><svg t="1527790336474" class="icon" style="" viewBox="0 0 1024 1024" version="1.1" xmlns="http://www.w3.org/2000/svg" p-id="1618" xmlns:xlink="http://www.w3.org/1999/xlink" width="32" height="32"><defs><style type="text/css"></style></defs><path d="M512 972.8a460.8 460.8 0 1 0 0-921.6 460.8 460.8 0 0 0 0 921.6z m0 51.2C229.2224 1024 0 794.7776 0 512S229.2224 0 512 0s512 229.2224 512 512-229.2224 512-512 512zM288.6144 324.8128l413.0304 434.944a25.6 25.6 0 0 0 37.12-35.2256L325.7856 289.5872a25.6 25.6 0 1 0-37.1712 35.2256z m413.0304-35.2256L288.6144 724.48a25.6 25.6 0 0 0 37.1712 35.2256l412.9792-434.944a25.6 25.6 0 1 0-37.12-35.2256z" p-id="1619" fill="#ff5722"></path></svg>