<?xml version="1.0" standalone="no"?><!DOCTYPE svg PUBLIC "-//W3C//DTD SVG 1.1//EN" "http://www.w3.org/Graphics/SVG/1.1/DTD/svg11.dtd"><svg t="1525980289871" class="icon" style="" viewBox="0 0 1024 1024" version="1.1" xmlns="http://www.w3.org/2000/svg" p-id="18758" xmlns:xlink="http://www.w3.org/1999/xlink" width="16" height="16"><defs><style type="text/css"></style></defs><path d="M50.86424296 12.14818225l960.9875748 960.98757479V12.14818225H50.86424296z m542.27156006 459.90119653c-6.86419697-3.43209849-17.16049241-10.29629546-27.45678784-13.72839396 17.16049241-27.45678784 34.32098481-58.34567419 44.61728027-82.37036357l27.45678784 13.72839396c-13.72839391 24.02468937-27.45678784 54.91357571-44.61728027 82.37036357z m61.77777268-164.74072712c0 30.88888633-13.72839391 48.04937876-44.61728025 48.04937871h-37.7530833c0-10.29629546-3.43209849-20.59259088-3.43209849-34.32098479 13.72839391 3.43209849 24.02468937 3.43209849 34.32098482 3.43209846 13.72839391 0 20.59259088-6.86419697 20.59259088-20.59259088v-44.61728026c-17.16049241 3.43209849-34.32098481 10.29629546-54.9135757 17.16049241l-6.86419697-30.88888632c20.59259088-6.86419697 41.18518177-10.29629546 61.77777267-17.16049243v-61.77777266H565.67901518v-27.45678785h58.34567418V80.79015186h30.88888634v58.34567419H702.96295442v27.45678785h-48.04937872V218.07409112c13.72839391-3.43209849 30.88888633-10.29629546 44.61728026-13.72839393v30.88888635s-17.16049241 6.86419697-44.61728026 13.72839392v58.3456742z m54.91357568 157.87653012c-10.29629546-27.45678784-24.02468937-51.48147723-34.3209848-75.50616657l27.45678784-10.29629543c13.72839391 24.02468937 24.02468937 48.04937876 37.75308332 75.50616656l-30.88888636 10.29629544z m102.96295444-3.43209847c-10.29629546-24.02468937-20.59259088-51.48147723-34.32098481-75.5061666l27.45678787-10.29629546c13.72839391 24.02468937 27.45678784 48.04937876 37.75308329 72.07406814l-30.88888635 13.72839392z m113.25924992 3.43209847c-13.72839391-27.45678784-30.88888633-54.91357571-48.04937876-82.37036353l27.45678785-13.72839395c17.16049241 27.45678784 34.32098481 51.48147723 51.48147724 82.37036355l-30.88888633 13.72839393z m27.45678783-144.1481362c-6.86419697 24.02468937-17.16049241 37.7530833-37.75308328 37.75308328-24.02468937 0-37.7530833-17.16049241-48.04937876-54.9135757-3.43209849-24.02468937-6.86419697-68.64196964-6.86419695-137.28393926h-61.77777269c0 27.45678784-3.43209849 54.91357571-10.29629543 75.5061666 20.59259088 13.72839391 37.7530833 24.02468937 54.91357571 37.75308329l-20.59259089 27.45678787c-17.16049241-13.72839391-30.88888633-24.02468937-44.61728027-34.32098484-17.16049241 41.18518177-44.61728023 72.07406811-82.37036355 92.66665901-6.86419697-6.86419697-13.72839391-17.16049241-24.02468937-27.45678785 37.7530833-20.59259088 61.77777268-48.04937876 78.93826509-85.80246205-17.16049241-10.29629546-30.88888633-20.59259088-44.61728027-30.88888633l17.16049239-24.02468937c13.72839391 6.86419697 24.02468937 13.72839391 37.75308332 24.02468937 3.43209849-17.16049241 6.86419697-37.7530833 6.86419696-58.34567418h-48.04937874v-27.45678786H771.60492407v-61.77777265h30.88888633v61.77777265h92.66665899c-3.43209849 78.93826508 0 133.85184078 6.86419696 161.30862864 3.43209849 17.16049241 10.29629546 24.02468937 13.72839394 24.02468938 6.86419697 0 10.29629546-3.43209849 10.29629545-13.72839392 3.43209849-13.72839391 3.43209849-30.88888633 6.86419695-54.91357573l30.88888633 10.29629545c-3.43209849 27.45678784-6.86419697 44.61728023-10.29629545 58.3456742z" fill="#FF5722" p-id="18759"></path></svg>