<?xml version="1.0" standalone="no"?><!DOCTYPE svg PUBLIC "-//W3C//DTD SVG 1.1//EN" "http://www.w3.org/Graphics/SVG/1.1/DTD/svg11.dtd"><svg t="1526526045139" class="icon" style="" viewBox="0 0 1024 1024" version="1.1" xmlns="http://www.w3.org/2000/svg" p-id="3594" xmlns:xlink="http://www.w3.org/1999/xlink" width="32" height="32"><defs><style type="text/css"></style></defs><path d="M871.296 60.512H711.712V40.448A40.032 40.032 0 0 0 671.776 0.32a40.032 40.032 0 0 0-39.952 40.128v20.064H392.176V40.448A40.032 40.032 0 0 0 352.224 0.32a40.032 40.032 0 0 0-39.936 40.128v20.064H152.144c-43.824 0-79.504 37.632-79.504 83.904v116.736h878.752V144.416c0-46.272-35.904-83.904-80.08-83.904zM671.776 501.92a40.032 40.032 0 0 1 39.936 40.128 40.032 40.032 0 0 1-39.936 40.128H352.224a40.032 40.032 0 0 1-39.936-40.128 40.032 40.032 0 0 1 39.936-40.128h319.552zM312.288 742.704a40.263 40.263 0 0 1 11.68-28.368 39.84 39.84 0 0 1 28.256-11.76h319.552a40.032 40.032 0 0 1 39.936 40.128 40.032 40.032 0 0 1-39.936 40.128H352.224a39.84 39.84 0 0 1-28.24-11.76 40.224 40.224 0 0 1-11.696-28.368z m599.152-401.28H72.624v598.32c0 46.224 35.712 83.872 79.568 83.872h719.616c43.856 0 79.568-37.648 79.568-83.872V341.408H911.44z" p-id="3595" fill="#FFD740"></path></svg>