<?xml version="1.0" standalone="no"?><!DOCTYPE svg PUBLIC "-//W3C//DTD SVG 1.1//EN" "http://www.w3.org/Graphics/SVG/1.1/DTD/svg11.dtd"><svg t="1525979230926" class="icon" style="" viewBox="0 0 1024 1024" version="1.1" xmlns="http://www.w3.org/2000/svg" p-id="17161" data-spm-anchor-id="a313x.7781069.0.i11" xmlns:xlink="http://www.w3.org/1999/xlink" width="16" height="16"><defs><style type="text/css"></style></defs><path d="M518.023529 12.047059c-279.443576 0-505.976471 226.532894-505.976471 505.976471 0 279.443576 226.532894 505.976471 505.976471 505.976471 279.443576 0 505.976471-226.532894 505.976471-505.976471C1024 238.579953 797.467106 12.047059 518.023529 12.047059zM710.342776 479.448847c0 14.336-11.613365 25.949365-25.949365 25.949365l-127.891576 0 0 76.932518 127.891576 0c14.336 0 25.949365 11.613365 25.949365 25.949365l0 25.780706c0 14.336-11.613365 25.949365-25.949365 25.949365l-127.891576 0 0 76.354259c0 14.336-11.613365 25.949365-25.949365 25.949365L504.771765 762.313788c-14.336 0-25.949365-11.613365-25.949365-25.949365l0-76.354259-127.891576 0c-14.336 0-25.949365-11.613365-25.949365-25.949365l0-25.780706c0-14.336 11.613365-25.949365 25.949365-25.949365l127.891576 0 0-76.932518-127.891576 0c-14.336 0-25.949365-11.613365-25.949365-25.949365l0-25.780706c0-14.336 11.613365-25.949365 25.949365-25.949365l126.229082 0-117.723859-117.723859c-10.143624-10.119529-10.143624-26.551718 0-36.695341l18.215153-18.215153c10.143624-10.143624 26.575812-10.143624 36.695341 0l103.773365 103.773365 103.773365-103.773365c10.143624-10.143624 26.575812-10.143624 36.695341 0l18.215153 18.215153c10.143624 10.143624 10.143624 26.575812 0 36.695341l-117.723859 117.723859 125.313506 0c14.336 0 25.949365 11.613365 25.949365 25.949365L710.342776 479.448847z" p-id="17162" fill="#FFD740" data-spm-anchor-id="a313x.7781069.0.i12" class="selected"></path></svg>