<?xml version="1.0" standalone="no"?><!DOCTYPE svg PUBLIC "-//W3C//DTD SVG 1.1//EN" "http://www.w3.org/Graphics/SVG/1.1/DTD/svg11.dtd"><svg t="1525981826827" class="icon" style="" viewBox="0 0 1024 1024" version="1.1" xmlns="http://www.w3.org/2000/svg" p-id="19545" xmlns:xlink="http://www.w3.org/1999/xlink" width="16" height="16"><defs><style type="text/css"></style></defs><path d="M513.13777778 2.048c-280.46222223 0-507.79022223 227.328-507.79022224 507.79022223S232.67555554 1017.62844445 513.13777778 1017.62844445s507.79022223-227.328 507.79022223-507.79022224S793.60000002 2.048 513.13777778 2.048z m185.91288889 338.37511111L608.256 431.21777778h39.70844444c21.73155556 0 39.36711111 17.63555556 39.3671111 39.36711111s-17.63555556 39.36711111-39.3671111 39.36711111h-95.45955555v50.28977778h95.45955558c21.73155556 0 39.36711111 17.63555556 39.36711107 39.36711111s-17.63555556 39.36711111-39.3671111 39.36711111h-95.45955555v109.22666667c0 21.73155556-17.63555556 39.36711111-39.36711111 39.36711111s-39.36711111-17.63555556-39.3671111-39.36711111v-109.22666667h-95.45955558c-21.73155556 0-39.36711111-17.63555556-39.36711109-39.36711111s17.63555556-39.36711111 39.36711112-39.36711111h95.45955555v-50.28977778h-95.45955558c-21.73155556 0-39.36711111-17.63555556-39.36711109-39.36711111s17.63555556-39.36711111 39.36711112-39.36711111h39.70844442l-90.79466666-90.79466667c-15.36000001-15.36000001-15.36000001-40.27733333 0-55.75111111 15.36000001-15.36000001 40.27733333-15.36000001 55.75111111 0L513.13777778 414.94755554l130.16177777-130.16177775c15.36000001-15.36000001 40.27733333-15.36000001 55.75111112 0 15.36000001 15.36000001 15.36000001 40.27733333 0 55.63733332z" fill="#FF5722" p-id="19546"></path></svg>