<?xml version="1.0" standalone="no"?><!DOCTYPE svg PUBLIC "-//W3C//DTD SVG 1.1//EN" "http://www.w3.org/Graphics/SVG/1.1/DTD/svg11.dtd"><svg t="1526298916199" class="icon" style="" viewBox="0 0 1024 1024" version="1.1" xmlns="http://www.w3.org/2000/svg" p-id="4498" xmlns:xlink="http://www.w3.org/1999/xlink" width="128" height="128"><defs><style type="text/css"></style></defs><path d="M504.953909 1023.365671c-278.056792 0-503.461221-225.451752-503.461221-503.459207 0-278.058806 225.404429-503.461221 503.461221-503.461221 278.009469 0 503.461221 225.402416 503.461221 503.461221C1008.41513 797.913918 782.963378 1023.365671 504.953909 1023.365671L504.953909 1023.365671 504.953909 1023.365671zM504.953909 79.377769c-243.293526 0-440.526681 197.234162-440.526681 440.528694 0 243.292519 197.233155 440.479358 440.526681 440.479358 243.294533 0 440.480365-197.186839 440.480365-440.479358C945.434274 276.61193 748.248442 79.377769 504.953909 79.377769L504.953909 79.377769 504.953909 79.377769zM536.420676 834.569097l-62.933534 0L473.487142 677.188947 284.690569 677.188947l0-62.884197 188.796573 0 0-94.398287L284.690569 519.906463l0-62.934541 153.598339 0-154.082644-217.645473 53.96331-34.132964 156.022887 220.312677 35.732884 0L669.413377 216.974896l52.315061 35.005922L584.565272 456.971923l140.652984 0 0 62.934541-182.737217 0-6.06137 9.01654 0 85.381747 188.79758 0 0 62.884197L536.420676 677.188947 536.420676 834.569097 536.420676 834.569097 536.420676 834.569097z" p-id="4499" fill="#424242"></path></svg>