<?xml version="1.0" standalone="no"?><!DOCTYPE svg PUBLIC "-//W3C//DTD SVG 1.1//EN" "http://www.w3.org/Graphics/SVG/1.1/DTD/svg11.dtd"><svg t="1528290401709" class="icon" style="" viewBox="0 0 1024 1024" version="1.1" xmlns="http://www.w3.org/2000/svg" p-id="2340" xmlns:xlink="http://www.w3.org/1999/xlink" width="32" height="32"><defs><style type="text/css"></style></defs><path d="M990.391555 809.216215c0 0-94.5187 18.961864-190.429097 38.70144-63.919798 71.181179-127.5807 142.198629-127.5807 142.198629L535.336498 756.284679c-7.746428 0.48607-15.461133 1.167592-23.337521 1.167592-7.875365 0-15.59007-0.681522-23.337521-1.167592L351.618243 990.115262c0 0-63.660902-71.018473-127.5807-142.198629-95.91142-19.739577-190.43012-38.70144-190.43012-38.70144l149.037385-254.317173c-24.019043-48.101531-37.859259-102.005208-37.859259-159.215188 0.064468-199.829188 164.465772-361.80014 367.245152-361.80014s367.180683 161.969928 367.180683 361.768417c0 57.20998-13.840216 111.112634-37.859259 159.215188L990.391555 809.216215 990.391555 809.216215zM679.512155 881.627409c0 0 45.898353-43.530422 89.039919-85.47472 61.196781-17.405415 122.945123-35.136242 122.945123-35.136242l-86.608543-147.805324c-49.949622 65.182558-121.648594 113.026216-204.593701 133.219117L679.512155 881.627409 679.512155 881.627409zM132.567271 761.01747c0 0 61.747319 17.729803 122.945123 35.136242 43.141566 41.944298 89.039919 85.47472 89.039919 85.47472l79.218226-135.164423c-82.946131-20.192901-154.612357-68.035536-204.593701-133.220141L132.567271 761.01747 132.567271 761.01747zM512.031722 93.26515c-164.887374 0-298.529117 133.932362-298.529117 299.112402 0 165.211762 133.641743 299.112402 298.529117 299.112402 164.855652 0 298.529117-133.932362 298.529117-299.112402C810.56084 227.16579 676.919097 93.26515 512.031722 93.26515L512.031722 93.26515z" p-id="2341" fill="#ff5722"></path><path d="M327.260485 311.950801l109.325941 0c3.197832-5.995551 6.327102-12.123109 9.393951-18.387789l31.578206 0c-3.066849 6.264681-6.129604 12.391215-9.193383 18.387789L702.20704 311.950801l0 27.981285L453.575356 339.932086c-9.993608 17.856693-20.386306 34.645055-31.179117 50.366108l0 198.665689-30.379914 0L392.016325 430.870238c-18.387789 22.25384-37.708833 41.906435-57.961086 58.959833-7.194866-10.658757-13.459546-19.587104-18.786878-26.78197 40.772612-32.908504 75.948763-73.950246 105.528452-123.117039l-93.536326 0L327.260485 311.950801zM326.461283 235.202836l105.528452 0 0-35.576263 30.379914 0 0 35.576263 111.124913 0 0-35.975353 30.379914 0 0 35.975353 103.930047 0 0 27.981285L603.873454 263.184121l0 29.1806-30.379914 0 0-29.1806L462.368626 263.184121l0 24.783453-30.379914 0 0-24.783453L326.461283 263.184121 326.461283 235.202836zM451.975928 459.851293l120.31932 0 0-19.587104 58.360176-37.57478L473.561549 402.689409l0-27.182083 206.66078 0 0 27.182083-77.547167 49.166793 0 7.995091 105.128339 0 0 27.981285L602.674139 487.832578l0 53.16485c0 31.444153-14.523785 47.168276-43.570331 47.168276-16.788361 0-39.97341-0.135076-69.553099-0.400113-1.333368-10.127661-3.066849-20.920472-5.196349-32.378431 24.515347 2.1295 46.90017 3.197832 67.154469 3.197832 13.856589 0 20.786419-7.463995 20.786419-22.384823l0-48.367591L451.975928 487.832578 451.975928 459.851293z" p-id="2342" fill="#ff5722"></path></svg>