<?xml version="1.0" standalone="no"?><!DOCTYPE svg PUBLIC "-//W3C//DTD SVG 1.1//EN" "http://www.w3.org/Graphics/SVG/1.1/DTD/svg11.dtd"><svg t="1525970335823" class="icon" style="" viewBox="0 0 1024 1024" version="1.1" xmlns="http://www.w3.org/2000/svg" p-id="15369" xmlns:xlink="http://www.w3.org/1999/xlink" width="200" height="200"><defs><style type="text/css"></style></defs><path d="M30.384008 570.406225c-0.2415 1.369184-0.312108 2.289136-0.210801 2.762927 0.101307 0.473791 0.62524 0.710175 1.572822 0.710175 2.684132 0 4.987594-0.907673 6.913457-2.723018 1.923816-1.815345 3.137457-4.14439 3.6399-6.986111 0.25071-1.420349 0.282433-2.723018 0.096191-3.906983s-0.531096-2.210341-1.035586-3.078105c-0.50449-0.868787-1.147126-1.551332-1.926886-2.052752-0.780783-0.499373-1.671059-0.750083-2.669806-0.750083-1.578961 0-2.651386 0.487094-3.218298 1.460258-0.565888 0.974188-1.02126 2.434445-1.364067 4.380774l-1.670036 9.471722L30.384008 570.406225zM43.219337 577.076134c0.715291 0.868787 1.297552 2.119267 1.746784 3.749394l3.576455 13.734816c0.243547 1.000793 0.596588 1.76418 1.057075 2.289136 0.458441 0.527003 0.900509 0.935302 1.323135 1.223874 0.421602 0.289596 0.773619 0.540306 1.051959 0.750083 0.278339 0.210801 0.379647 0.527003 0.305969 0.947582-0.073678 0.421602-0.254803 0.776689-0.542352 1.065262-0.288572 0.288572-0.617054 0.433882-0.984421 0.433882-0.36839 0-0.947582-0.078795-1.733481-0.236384-0.787946-0.157589-1.866511-0.236384-3.233648-0.236384-1.052982 0-2.061962 0.053212-3.027963 0.157589-0.967024 0.105401-1.870604 0.157589-2.711761 0.157589-0.684592 0-1.162476-0.118704-1.436722-0.355087-0.273223-0.236384-0.541329-0.959861-0.800225-2.170432l-3.527336-16.260335c-0.756223-3.473101-1.922792-5.209652-3.501754-5.209652l-0.552585 0c-0.579191 0-0.933255 0.369414-1.063215 1.105171L26.353205 594.165348c-0.204661 1.158383-0.187265 2.026146 0.053212 2.605338 0.239454 0.580215 0.818645 0.947582 1.738597 1.105171 0.865717 0.157589 1.503237 0.276293 1.910513 0.355087 0.407276 0.078795 0.549515 0.461511 0.430812 1.14508-0.214894 1.211595-0.821715 1.815345-1.820462 1.815345-0.316202 0-1.178849-0.105401-2.588965-0.316202-1.411139-0.209778-3.431146-0.316202-6.062066-0.316202-2.578732 0-4.596691 0.106424-6.054903 0.316202-1.457188 0.209778-2.372024 0.316202-2.739391 0.316202-1.000793 0-1.39886-0.578168-1.194198-1.736551 0.102331-0.578168 0.325411-0.947582 0.668219-1.105171 0.342808-0.157589 0.977257-0.316202 1.899256-0.473791 1.088798-0.209778 1.862417-0.564865 2.318812-1.065262 0.456395-0.499373 0.802272-1.407046 1.033539-2.723018l6.304589-35.757388c0.203638-1.156336 0.196475-2.012843-0.022513-2.565429-0.217964-0.552585-0.756223-0.933255-1.612731-1.144056-0.857531-0.209778-1.511423-0.38067-1.960655-0.512676-0.451278-0.130983-0.61603-0.538259-0.494257-1.223874 0.211824-1.209548 1.188058-1.815345 2.924609-1.815345 0.63138 0 1.3743 0.039909 2.228761 0.118704 0.853437 0.078795 1.807159 0.118704 2.860141 0.118704 3.209088 0 6.102998-0.065492 8.677637-0.197498 2.575662-0.130983 4.811586-0.197498 6.705726-0.197498 4.735861 0 8.091282 1.039679 10.067286 3.118014 1.974981 2.079358 2.618641 5.065366 1.933025 8.959046-0.537236 3.052522-1.965771 5.631254-4.284583 7.735172-2.318812 2.105964-5.414313 3.551896-9.289574 4.341888C41.424458 575.537082 42.504046 576.208371 43.219337 577.076134z" p-id="15370" fill="#ff5722"></path><path d="M92.058672 560.854685c-0.130983 0.737804-0.284479 1.315972-0.464581 1.736551-0.180102 0.421602-0.584308 0.63138-1.215688 0.63138-0.684592 0-1.171686-0.446162-1.460258-1.341554-0.289596-0.89437-0.778736-2.078335-1.465374-3.551896-1.00591-2.052752-3.115967-3.078105-6.325056-3.078105-2.263553 0-3.815909 0.378623-4.660136 1.134847-0.843204 0.756223-1.384533 1.812275-1.623987 3.167133l-1.971911 11.186783c-0.12996 0.730641 0.030699 1.239224 0.479931 1.52575 0.449231 0.287549 1.279133 0.429789 2.489704 0.429789 1.578961 0 2.860141-0.104377 3.844561-0.316202 0.984421-0.209778 1.746784-0.656963 2.289136-1.341554 0.611937-0.788969 1.081635-1.511423 1.408069-2.170432 0.325411-0.656963 0.607844-1.209548 0.845251-1.657756 0.236384-0.446162 0.483001-0.801249 0.73985-1.065262 0.25685-0.261966 0.595564-0.394996 1.017166-0.394996 0.367367 0 0.655939 0.157589 0.86367 0.473791s0.25992 0.763386 0.159636 1.341554c-0.057305 0.316202-0.226151 0.974188-0.50756 1.972934-0.281409 1.000793-0.579191 2.39556-0.895393 4.183276-0.342808 1.947352-0.613984 3.63069-0.811482 5.052063-0.198521 1.420349-0.375553 2.578732-0.533143 3.473101-0.204661 1.158383-0.7552 1.736551-1.648546 1.736551-0.788969 0-1.231037-0.407276-1.323135-1.223874-0.094144-0.814552-0.283456-1.74883-0.571005-2.801812-0.337691-1.367137-0.840134-2.329045-1.506307-2.880607s-1.839905-0.828878-3.524267-0.828878c-0.316202 0-0.63138 0-0.947582 0s-0.662079 0.027629-1.039679 0.078795l-0.896416 0.157589c-0.649799 0.106424-1.031493 0.473791-1.14201 1.105171l-2.183735 12.393261c-0.232291 1.315972-0.38374 2.474354-0.455371 3.473101-0.071631 1.000793 0.032746 1.829671 0.312108 2.486634 0.278339 0.659009 0.795109 1.158383 1.550309 1.500167 0.7552 0.342808 1.816369 0.512676 3.185552 0.512676 1.578961 0 3.096525-0.327458 4.554736-0.986467 1.457188-0.656963 2.735297-1.564635 3.834328-2.723018 0.841158-0.89437 1.526773-1.722224 2.055822-2.486634 0.529049-0.762363 0.977257-1.432629 1.341554-2.012843 0.36532-0.578168 0.722454-1.038656 1.072425-1.381463 0.348947-0.341784 0.733711-0.512676 1.155313-0.512676 0.998747 0 1.355881 0.816598 1.068332 2.446725-0.225127 0.684592-0.446162 1.341554-0.663102 1.972934l-2.116197 6.631024c-0.25378 0.842181-0.577145 1.487887-0.972141 1.934049-0.394996 0.446162-0.960885 0.671289-1.696642 0.671289-0.63138 0-2.51017-0.170892-5.632277-0.512676-3.123131-0.341784-7.553023-0.512676-13.288654-0.512676-3.473101 0-6.205329 0.118704-8.193613 0.355087-1.989307 0.236384-3.194762 0.355087-3.615341 0.355087-1.105171 0-1.556449-0.577145-1.351787-1.731434 0.101307-0.576121 0.36225-0.942465 0.785899-1.100054 0.421602-0.157589 1.121544-0.316202 2.096754-0.473791 1.24741-0.209778 2.125407-0.563842 2.632967-1.061169 0.508583-0.49835 0.87902-1.401929 1.111311-2.714831l6.285147-35.645848c0.202615-1.153266 0.168846-2.00568-0.102331-2.557242-0.271176-0.549515-0.889253-0.931209-1.851161-1.140986-1.016143-0.209778-1.777483-0.366344-2.285043-0.471744s-0.696872-0.524956-0.565888-1.260713c0.193405-1.100054 0.86981-1.651616 2.02717-1.651616 0.26299 0 1.391696 0.093121 3.384074 0.275269 1.9934 0.183172 5.069459 0.275269 9.227152 0.275269 4.630461 0 8.414647-0.116657 11.350512-0.354064 2.935865-0.23536 4.956895-0.354064 6.062066-0.354064 0.788969 0 1.298576 0.093121 1.529843 0.276293 0.230244 0.185218 0.289596 0.592494 0.179079 1.223874l0 0L92.058672 560.854685z" p-id="15371" fill="#ff5722"></path><path d="M98.589412 565.670363c1.750877-3.209088 3.911076-5.985318 6.481621-8.327666 2.570545-2.340301 5.460362-4.183276 8.670473-5.525853 3.209088-1.341554 6.603395-2.012843 10.18292-2.012843 1.578961 0 3.03308 0.106424 4.364401 0.316202 1.330298 0.210801 2.494821 0.473791 3.491521 0.788969 0.9967 0.316202 1.804089 0.659009 2.423189 1.026376 0.6191 0.369414 1.010003 0.684592 1.175779 0.947582 0.076748 0.157589 0.12075 1.026376 0.132006 2.605338 0.011256 1.578961-0.182149 3.500731-0.582261 5.762237-0.204661 1.158383-0.700965 1.736551-1.489934 1.736551-0.737804 0-1.202385-0.420579-1.39579-1.26276-0.193405-0.841158-0.551562-1.867534-1.074472-3.078105-0.771573-1.89414-1.734504-3.301186-2.88777-4.223185-1.153266-0.919952-2.675946-1.381463-4.571109-1.381463-1.736551 0-3.51915 0.552585-5.344728 1.657756-1.826602 1.105171-3.526313 2.684132-5.097088 4.735861-1.572822 2.052752-2.979868 4.51278-4.222161 7.380084-1.243317 2.869351-2.174526 6.066159-2.795673 9.590426-0.604774 3.421936-0.799202 6.53995-0.584308 9.354042 0.214894 2.816139 0.750083 5.223978 1.608637 7.222495 0.857531 2.000564 2.01796 3.551896 3.480264 4.657067 1.462305 1.105171 3.113921 1.657756 4.956895 1.657756 1.89414 0 3.781116-0.63138 5.661953-1.89414 1.879813-1.26276 3.555989-3.078105 5.02648-5.446036 1.033539-1.683339 1.77032-2.960425 2.213411-3.828188 0.441045-0.868787 0.951675-1.302669 1.531889-1.302669 0.578168 0 0.857531 0.355087 0.837064 1.065262-0.019443 0.710175-0.192382 1.987261-0.51677 3.828188-0.296759 1.685385-0.587378 3.02694-0.868787 4.025687-0.281409 1.000793-0.710175 1.789763-1.285273 2.367931-1.328251 1.26276-3.182482 2.302439-5.562692 3.118014-2.38021 0.815575-5.122671 1.223874-8.226359 1.223874-3.63069 0-6.809079-0.63138-9.534144-1.89414-2.724041-1.26276-4.922103-3.051499-6.592139-5.367241-1.670036-2.314719-2.798742-5.090948-3.38612-8.327666-0.587378-3.236718-0.533143-6.827499 0.163729-10.774391C95.635127 572.353576 96.838535 568.880475 98.589412 565.670363z" p-id="15372" fill="#ff5722"></path><path d="M174.205601 551.816844c2.52552 1.341554 4.635577 3.184529 6.327102 5.525853 1.692548 2.342348 2.860141 5.118578 3.5038 8.327666 0.64366 3.211135 0.63752 6.684236-0.020466 10.419304-0.659009 3.737114-1.877767 7.210215-3.653203 10.419304-1.77646 3.211135-3.925403 5.998621-6.447852 8.367575-2.523473 2.367931-5.323239 4.223185-8.401344 5.564739-3.078105 1.341554-6.248308 2.012843-9.510608 2.012843-3.1569 0-6.000668-0.671289-8.526187-2.012843-2.52552-1.341554-4.632507-3.196809-6.319939-5.564739-1.687432-2.367931-2.854001-5.15644-3.497661-8.367575-0.64366-3.209088-0.636496-6.682189 0.022513-10.419304 0.657986-3.736091 1.87572-7.209192 3.65218-10.419304 1.77646-3.209088 3.923356-5.985318 6.441713-8.327666 2.517333-2.340301 5.316076-4.183276 8.394181-5.525853 3.078105-1.341554 6.248308-2.012843 9.511631-2.012843C168.837336 549.804001 171.679058 550.47529 174.205601 551.816844zM159.51297 554.111097c-1.557472 0.925069-3.00852 2.284019-4.350075 4.078899-1.343601 1.795902-2.536776 4.013407-3.580548 6.652514-1.044796 2.641153-1.864464 5.649674-2.461051 9.029654-0.708128 4.013407-1.010003 7.590885-0.906649 10.732435 0.103354 3.142573 0.541329 5.809309 1.313925 8.000208 0.77055 2.191922 1.832741 3.855818 3.184529 4.989641 1.351787 1.134847 2.89698 1.701758 4.63353 1.701758 1.63115 0 3.238764-0.461511 4.822842-1.38658 1.584078-0.924045 3.046383-2.282996 4.38896-4.078899 1.341554-1.794879 2.535753-4.012384 3.580548-6.652514 1.044796-2.639107 1.86958-5.676279 2.475378-9.108448 0.697895-3.960195 0.981351-7.511067 0.852414-10.653641-0.130983-3.14155-0.583285-5.79396-1.358951-7.958252-0.776689-2.164293-1.838881-3.828188-3.185552-4.990664-1.347694-1.161453-2.889817-1.74269-4.626367-1.74269C162.664753 552.724517 161.070442 553.187051 159.51297 554.111097z" p-id="15373" fill="#ff5722"></path><path d="M211.487715 580.99949c0.090051 0.680499 0.240477 1.02126 0.451278 1.02126 0.26299 0 0.599657-0.418532 1.011027-1.25662l14.139022-27.811416c0.320295-0.62831 0.720408-1.033539 1.200338-1.217734 0.479931-0.182149 1.166569-0.275269 2.061962-0.275269 0.578168 0 1.300622 0.013303 2.163269 0.039909 0.86367 0.026606 1.849114 0.039909 2.954285 0.039909 1.26276 0 2.350534-0.052189 3.263323-0.156566 0.912789-0.104377 1.658779-0.157589 2.238994-0.157589 1.314948 0 1.862417 0.629333 1.64036 1.885953-0.073678 0.419556-0.233314 0.720408-0.474814 0.902556-0.242524 0.184195-0.527003 0.301875-0.852414 0.354064-0.325411 0.053212-0.686638 0.093121-1.086751 0.118704-0.400113 0.025583-0.792039 0.091074-1.178849 0.196475-0.941442 0.260943-1.603521 0.811482-1.988284 1.648546-0.384763 0.839111-0.710175 2.016937-0.978281 3.536546l-0.193405 1.099031-5.094018 32.917714c-0.160659 1.204431-0.10847 2.109034 0.152473 2.710738 0.261966 0.601704 0.800225 0.981351 1.6158 1.137916 0.865717 0.157589 1.515516 0.276293 1.950422 0.355087 0.432859 0.078795 0.576121 0.537236 0.427742 1.3743-0.174985 0.995677-0.763386 1.49198-1.762133 1.49198-0.316202 0-1.192152-0.104377-2.62785-0.316202-1.436722-0.209778-3.524267-0.316202-6.259564-0.316202-2.684132 0-4.79419 0.106424-6.331195 0.316202-1.537006 0.210801-2.489704 0.316202-2.858094 0.316202-0.99977 0-1.412163-0.499373-1.236154-1.500167 0.128937-0.735757 0.428765-1.170662 0.900509-1.302669 0.471744-0.130983 1.140986-0.276293 2.01182-0.433882 0.931209-0.209778 1.632173-0.603751 2.102894-1.183965 0.469698-0.578168 0.811482-1.472538 1.026376-2.684132l4.727675-27.706015c0.101307-0.578168 0.047072-0.868787-0.162706-0.868787-0.157589 0-0.363274 0.264013-0.61296 0.788969L208.29807 596.84948c-0.554632 1.052982-1.049912 1.842974-1.483794 2.367931-0.435928 0.527003-0.942465 0.788969-1.520633 0.788969-0.737804 0-1.217734-0.261966-1.438769-0.788969-0.223081-0.524956-0.404206-1.288343-0.542352-2.289136l-4.513804-32.600489c-0.094144-0.367367-0.245593-0.552585-0.455371-0.552585-0.106424 0-0.204661 0.264013-0.296759 0.788969l-3.544733 15.628956c-0.202615 0.842181-0.394996 1.789763-0.579191 2.841721-0.186242 1.052982-0.385786 2.184759-0.599657 3.394307l-0.403183 2.289136c-0.463558 2.631944-0.672312 4.631484-0.624217 5.998621 0.048095 1.369184 0.509606 2.263553 1.382487 2.684132 0.436952 0.210801 0.887206 0.342808 1.350764 0.394996 0.463558 0.053212 0.87595 0.106424 1.236154 0.157589 0.35918 0.053212 0.639566 0.171915 0.845251 0.355087 0.204661 0.185218 0.265036 0.512676 0.181125 0.986467-0.195451 1.105171-0.924045 1.657756-2.186805 1.657756-0.527003 0-1.223874-0.078795-2.089591-0.236384-0.867764-0.157589-1.984191-0.236384-3.352351-0.236384-1.526773 0-2.76395 0.078795-3.712555 0.236384-0.949628 0.157589-1.63422 0.236384-2.054799 0.236384-1.105171 0-1.569752-0.497327-1.394766-1.49198 0.119727-0.680499 0.37453-1.086751 0.76748-1.217734 0.391926-0.130983 1.001817-0.301875 1.827625-0.511653 0.605797-0.156566 1.108241-0.326435 1.509377-0.51063 0.401136-0.182149 0.727571-0.471744 0.981351-0.86367 0.252757-0.391926 0.490164-0.915859 0.710175-1.571798 0.221034-0.653893 0.450255-1.50426 0.687662-2.553149l6.383384-28.597315c0.154519-0.576121 0.272199-1.100054 0.356111-1.570775 0.082888-0.471744 0.151449-0.86367 0.206708-1.177825 0.323365-1.832741 0.483001-3.194762 0.483001-4.085038-0.001023-0.890276-0.437975-1.545192-1.310855-1.964748-0.39295-0.156566-0.782829-0.261966-1.167592-0.313132-0.385786-0.051165-0.719384-0.104377-0.998747-0.157589-0.280386-0.051165-0.49528-0.169869-0.647753-0.354064-0.152473-0.182149-0.187265-0.51063-0.103354-0.981351 0.202615-1.152243 0.804319-1.728364 1.805112-1.728364 0.420579 0 1.14508 0.065492 2.175549 0.196475 1.028423 0.130983 2.412956 0.196475 4.149507 0.196475 1.156336 0 2.190899-0.037862 3.099594-0.116657 0.907673-0.078795 1.678222-0.118704 2.310625-0.118704 1.26276 0 1.964748 0.49835 2.104941 1.49198L211.487715 580.99949z" p-id="15374" fill="#ff5722"></path><path d="M265.795599 580.99949c0.090051 0.680499 0.240477 1.02126 0.451278 1.02126 0.26299 0 0.599657-0.418532 1.011027-1.25662l14.139022-27.811416c0.320295-0.62831 0.720408-1.033539 1.200338-1.217734 0.479931-0.182149 1.166569-0.275269 2.061962-0.275269 0.578168 0 1.300622 0.013303 2.163269 0.039909 0.86367 0.026606 1.849114 0.039909 2.954285 0.039909 1.26276 0 2.350534-0.052189 3.263323-0.156566 0.912789-0.104377 1.658779-0.157589 2.238994-0.157589 1.314948 0 1.862417 0.629333 1.64036 1.885953-0.073678 0.419556-0.233314 0.720408-0.474814 0.902556-0.243547 0.184195-0.527003 0.301875-0.852414 0.354064-0.325411 0.053212-0.686638 0.093121-1.086751 0.118704-0.400113 0.025583-0.792039 0.091074-1.178849 0.196475-0.941442 0.260943-1.603521 0.811482-1.988284 1.648546-0.384763 0.839111-0.710175 2.016937-0.978281 3.536546l-0.193405 1.099031-5.094018 32.917714c-0.160659 1.204431-0.10847 2.109034 0.152473 2.710738s0.800225 0.981351 1.6158 1.137916c0.865717 0.157589 1.515516 0.276293 1.950422 0.355087 0.432859 0.078795 0.576121 0.537236 0.427742 1.3743-0.174985 0.995677-0.763386 1.49198-1.762133 1.49198-0.316202 0-1.192152-0.104377-2.62785-0.316202-1.436722-0.209778-3.524267-0.316202-6.259564-0.316202-2.683109 0-4.79419 0.106424-6.330172 0.316202-1.537006 0.210801-2.490727 0.316202-2.858094 0.316202-0.99977 0-1.412163-0.499373-1.236154-1.500167 0.128937-0.735757 0.428765-1.170662 0.900509-1.302669 0.471744-0.130983 1.140986-0.276293 2.01182-0.433882 0.931209-0.209778 1.632173-0.603751 2.102894-1.183965 0.469698-0.578168 0.811482-1.472538 1.026376-2.684132l4.727675-27.706015c0.101307-0.578168 0.047072-0.868787-0.162706-0.868787-0.157589 0-0.36225 0.264013-0.61296 0.788969l-15.531741 30.785144c-0.554632 1.052982-1.049912 1.842974-1.483794 2.367931-0.435928 0.527003-0.942465 0.788969-1.520633 0.788969-0.737804 0-1.217734-0.261966-1.438769-0.788969-0.223081-0.524956-0.404206-1.288343-0.542352-2.289136l-4.513804-32.600489c-0.094144-0.367367-0.245593-0.552585-0.455371-0.552585-0.106424 0-0.204661 0.264013-0.297782 0.788969l-3.544733 15.628956c-0.202615 0.842181-0.394996 1.789763-0.580215 2.841721-0.186242 1.052982-0.385786 2.184759-0.599657 3.394307l-0.403183 2.289136c-0.463558 2.631944-0.672312 4.631484-0.624217 5.998621 0.048095 1.369184 0.509606 2.263553 1.382487 2.684132 0.436952 0.210801 0.887206 0.342808 1.350764 0.394996 0.463558 0.053212 0.87595 0.106424 1.236154 0.157589 0.35918 0.053212 0.639566 0.171915 0.845251 0.355087 0.204661 0.185218 0.265036 0.512676 0.181125 0.986467-0.195451 1.105171-0.924045 1.657756-2.186805 1.657756-0.527003 0-1.223874-0.078795-2.089591-0.236384-0.86674-0.157589-1.984191-0.236384-3.352351-0.236384-1.526773 0-2.76395 0.078795-3.712555 0.236384-0.949628 0.157589-1.63422 0.236384-2.054799 0.236384-1.105171 0-1.569752-0.497327-1.394766-1.49198 0.119727-0.680499 0.37453-1.086751 0.76748-1.217734 0.391926-0.130983 1.001817-0.301875 1.827625-0.511653 0.605797-0.156566 1.108241-0.326435 1.509377-0.51063 0.401136-0.182149 0.727571-0.471744 0.981351-0.86367 0.252757-0.391926 0.490164-0.915859 0.710175-1.571798 0.221034-0.653893 0.450255-1.50426 0.687662-2.553149l6.383384-28.597315c0.154519-0.576121 0.272199-1.100054 0.356111-1.570775 0.082888-0.471744 0.151449-0.86367 0.206708-1.177825 0.323365-1.832741 0.483001-3.194762 0.483001-4.085038-0.001023-0.890276-0.437975-1.545192-1.310855-1.964748-0.393973-0.156566-0.783853-0.261966-1.167592-0.313132-0.385786-0.051165-0.719384-0.104377-0.998747-0.157589-0.280386-0.051165-0.49528-0.169869-0.647753-0.354064-0.152473-0.182149-0.187265-0.51063-0.103354-0.981351 0.202615-1.152243 0.804319-1.728364 1.805112-1.728364 0.420579 0 1.14508 0.065492 2.175549 0.196475 1.028423 0.130983 2.412956 0.196475 4.149507 0.196475 1.156336 0 2.190899-0.037862 3.099594-0.116657 0.907673-0.078795 1.678222-0.118704 2.310625-0.118704 1.26276 0 1.964748 0.49835 2.104941 1.49198L265.795599 580.99949z" p-id="15375" fill="#ff5722"></path><path d="M332.180542 560.854685c-0.130983 0.737804-0.285502 1.315972-0.464581 1.736551-0.180102 0.421602-0.584308 0.63138-1.216711 0.63138-0.684592 0-1.171686-0.446162-1.460258-1.341554-0.289596-0.89437-0.777713-2.078335-1.465374-3.551896-1.006933-2.052752-3.114944-3.078105-6.325056-3.078105-2.263553 0-3.815909 0.378623-4.659113 1.134847-0.843204 0.756223-1.384533 1.812275-1.623987 3.167133l-1.971911 11.186783c-0.12996 0.730641 0.030699 1.239224 0.479931 1.52575 0.449231 0.287549 1.279133 0.429789 2.489704 0.429789 1.578961 0 2.860141-0.104377 3.844561-0.316202 0.984421-0.209778 1.746784-0.656963 2.289136-1.341554 0.611937-0.788969 1.081635-1.511423 1.408069-2.170432 0.325411-0.656963 0.607844-1.209548 0.845251-1.657756 0.236384-0.446162 0.483001-0.801249 0.73985-1.065262 0.25685-0.261966 0.595564-0.394996 1.017166-0.394996 0.367367 0 0.655939 0.157589 0.86367 0.473791s0.25992 0.763386 0.158612 1.341554c-0.056282 0.316202-0.225127 0.974188-0.506537 1.972934-0.281409 1.000793-0.579191 2.39556-0.895393 4.183276-0.342808 1.947352-0.613984 3.63069-0.811482 5.052063-0.198521 1.420349-0.376577 2.578732-0.533143 3.473101-0.204661 1.158383-0.7552 1.736551-1.64957 1.736551-0.788969 0-1.231037-0.407276-1.323135-1.223874-0.094144-0.814552-0.283456-1.74883-0.571005-2.801812-0.337691-1.367137-0.840134-2.329045-1.505283-2.880607s-1.839905-0.828878-3.524267-0.828878c-0.316202 0-0.63138 0-0.947582 0-0.316202 0-0.662079 0.027629-1.039679 0.078795l-0.896416 0.157589c-0.649799 0.106424-1.031493 0.473791-1.14201 1.105171l-2.183735 12.393261c-0.232291 1.315972-0.38374 2.474354-0.455371 3.473101-0.071631 1.000793 0.032746 1.829671 0.312108 2.486634 0.278339 0.659009 0.795109 1.158383 1.550309 1.500167 0.7552 0.342808 1.816369 0.512676 3.185552 0.512676 1.578961 0 3.096525-0.327458 4.554736-0.986467 1.458211-0.656963 2.735297-1.564635 3.834328-2.723018 0.841158-0.89437 1.526773-1.722224 2.055822-2.486634 0.529049-0.762363 0.977257-1.432629 1.341554-2.012843 0.36532-0.578168 0.722454-1.038656 1.073448-1.381463 0.348947-0.341784 0.733711-0.512676 1.155313-0.512676 0.998747 0 1.355881 0.816598 1.068332 2.446725-0.225127 0.684592-0.446162 1.341554-0.663102 1.972934l-2.116197 6.631024c-0.25378 0.842181-0.577145 1.487887-0.972141 1.934049-0.394996 0.446162-0.960885 0.671289-1.696642 0.671289-0.63138 0-2.51017-0.170892-5.633301-0.512676-3.123131-0.341784-7.553023-0.512676-13.287631-0.512676-3.473101 0-6.205329 0.118704-8.193613 0.355087-1.989307 0.236384-3.194762 0.355087-3.615341 0.355087-1.105171 0-1.556449-0.577145-1.351787-1.731434 0.101307-0.576121 0.363274-0.942465 0.785899-1.100054 0.421602-0.157589 1.121544-0.316202 2.096754-0.473791 1.246387-0.209778 2.125407-0.563842 2.632967-1.061169 0.508583-0.49835 0.87902-1.401929 1.111311-2.714831l6.285147-35.645848c0.202615-1.153266 0.168846-2.00568-0.102331-2.557242-0.271176-0.549515-0.889253-0.931209-1.851161-1.140986-1.016143-0.209778-1.777483-0.366344-2.285043-0.471744-0.508583-0.105401-0.696872-0.524956-0.565888-1.260713 0.193405-1.100054 0.86981-1.651616 2.02717-1.651616 0.26299 0 1.391696 0.093121 3.384074 0.275269 1.9934 0.183172 5.069459 0.275269 9.227152 0.275269 4.629437 0 8.413624-0.116657 11.350512-0.354064 2.935865-0.23536 4.956895-0.354064 6.062066-0.354064 0.788969 0 1.298576 0.093121 1.529843 0.276293 0.231267 0.185218 0.289596 0.592494 0.179079 1.223874l0 0L332.180542 560.854685z" p-id="15376" fill="#ff5722"></path><path d="M368.892675 599.304392c-0.445138 2.521426-1.351787 3.781116-2.719948 3.781116-0.737804 0-1.302669-0.302899-1.694595-0.907673-0.39295-0.605797-0.797156-1.378393-1.208525-2.323928l-17.048281-37.158295c-0.208754-0.313132-0.418532-0.470721-0.62831-0.470721-0.157589 0-0.301875 0.366344-0.430812 1.099031l-4.599761 26.083052c-0.425695 2.409886-0.615007 4.229325-0.567935 5.460362 0.047072 1.231037 0.479931 2.054799 1.300622 2.474354 0.479931 0.261966 0.978281 0.419556 1.49505 0.470721 0.51677 0.053212 0.983397 0.093121 1.399883 0.118704 0.417509 0.027629 0.73985 0.132006 0.970094 0.315178 0.231267 0.182149 0.304945 0.51063 0.222057 0.981351-0.203638 1.152243-0.988514 1.727341-2.356674 1.727341-0.579191 0-1.353834-0.078795-2.325975-0.236384-0.972141-0.157589-2.168386-0.236384-3.589758-0.236384-1.420349 0-2.592035 0.078795-3.515057 0.236384-0.923022 0.157589-1.620917 0.236384-2.094708 0.236384-1.158383 0-1.635243-0.576121-1.431605-1.727341 0.073678-0.419556 0.206708-0.720408 0.396019-0.904603 0.190335-0.182149 0.447185-0.300852 0.773619-0.353041 0.324388-0.051165 0.701988-0.104377 1.1328-0.157589 0.430812-0.051165 0.927115-0.182149 1.489934-0.391926 0.949628-0.314155 1.667989-1.100054 2.152013-2.356674 0.484024-1.25662 0.948605-3.142573 1.39272-5.656837l5.028527-28.517497c0.304945-1.728364 0.452301-3.089361 0.444115-4.085038-0.008186-0.995677-0.348947-1.676176-1.02126-2.043542-0.340761-0.156566-0.707105-0.24764-1.096984-0.274246-0.38988-0.025583-0.751107-0.065492-1.083681-0.118704-0.332575-0.051165-0.588401-0.169869-0.766456-0.354064-0.178055-0.182149-0.227174-0.51063-0.143263-0.981351 0.202615-1.152243 0.804319-1.728364 1.805112-1.728364 0.209778 0 0.88516 0.053212 2.025123 0.156566 1.139963 0.104377 2.866281 0.156566 5.183046 0.156566 1.367137 0 2.489704-0.025583 3.368724-0.077771 0.876973-0.052189 1.473561-0.078795 1.789763-0.078795 0.63138 0 1.062192 0.092098 1.292436 0.275269 0.230244 0.184195 0.50142 0.589424 0.812505 1.217734l12.69309 26.946722c0.232291 0.471744 0.454348 0.708128 0.665149 0.708128 0.420579 0 0.695848-0.366344 0.824785-1.100054l2.951215-16.734126c0.424672-2.408863 0.596588-4.216022 0.520863-5.420453-0.076748-1.203408-0.525979-2.01489-1.345648-2.434445-0.533143-0.260943-1.058099-0.419556-1.574868-0.471744-0.517793-0.051165-0.970094-0.104377-1.354857-0.157589-0.384763-0.051165-0.679475-0.169869-0.884137-0.353041-0.204661-0.182149-0.265036-0.51063-0.181125-0.983397 0.202615-1.152243 0.961908-1.728364 2.27788-1.728364 0.735757 0 1.369184 0.066515 1.898233 0.197498 0.529049 0.132006 0.978281 0.197498 1.346671 0.197498 0.105401 0 0.378623 0.013303 0.821715 0.039909 0.443092 0.027629 1.085728 0.039909 1.927909 0.039909 0.89437 0 1.554402-0.01228 1.979074-0.039909 0.425695-0.025583 0.690732-0.039909 0.797156-0.039909 0.26299 0 0.642636-0.065492 1.139963-0.197498 0.497327-0.130983 1.062192-0.197498 1.693572-0.197498 1.156336 0 1.63422 0.576121 1.431605 1.728364-0.073678 0.419556-0.204661 0.708128-0.38988 0.864694-0.186242 0.157589-0.429789 0.275269-0.733711 0.354064-0.302899 0.078795-0.683569 0.144286-1.139963 0.196475-0.456395 0.053212-0.967024 0.184195-1.529843 0.391926-0.949628 0.316202-1.667989 1.101077-2.152013 2.357697-0.484024 1.25662-0.948605 3.14155-1.391696 5.65479L368.892675 599.304392z" p-id="15377" fill="#ff5722"></path><path d="M394.003586 596.336804c0.414439 1.079588 1.62194 1.617847 3.622504 1.617847 1.89414 0 3.797489-0.499373 5.711072-1.500167 1.912559-0.998747 3.694135-2.446725 5.343705-4.341888 1.64957-1.89414 3.111874-4.223185 4.38896-6.986111 1.276063-2.762927 2.230808-5.932106 2.862187-9.511631 0.611937-3.473101 0.818645-6.591115 0.621147-9.354042s-0.743944-5.103228-1.641383-7.024997c-0.89744-1.919722-2.125407-3.394307-3.680832-4.420683-1.556449-1.026376-3.359514-1.539053-5.412266-1.539053-1.210571 0-2.161223 0.093121-2.851954 0.276293-0.690732 0.185218-1.254573 0.473791-1.692548 0.868787-0.437975 0.394996-0.744967 0.868787-0.920976 1.420349s-0.324388 1.171686-0.445138 1.855254l-5.817496 32.994462C393.617799 593.376379 393.589147 595.258239 394.003586 596.336804zM389.416104 558.565549c0.333598-1.89414-0.26299-2.841721-1.787716-2.841721-0.316202 0-0.691755 0.039909-1.125637 0.118704s-0.88823 0.118704-1.362021 0.118704c-0.527003 0-0.715291-0.420579-0.566912-1.26276 0.101307-0.578168 0.688685-1.14508 1.759063-1.696642 1.070378-0.552585 2.498914-1.038656 4.28356-1.460258 1.784646-0.420579 3.872191-0.762363 6.259564-1.026376 2.387373-0.261966 4.976338-0.394996 7.765871-0.394996 4.15667 0 7.797593 0.6191 10.920724 1.855254 3.123131 1.237177 5.630231 2.987031 7.521301 5.249561 1.889023 2.263553 3.172249 4.986571 3.847631 8.170077 0.675382 3.184529 0.673335 6.697539-0.004093 10.538007-0.621147 3.526313-1.795902 6.827499-3.52222 9.906627s-3.911076 5.762237-6.550183 8.051373c-2.641153 2.289136-5.682419 4.092201-9.122775 5.40715-3.442402 1.315972-7.163143 1.972934-11.162224 1.972934-2.316765 0-4.319375-0.132006-6.008854-0.394996-1.689479-0.261966-3.166109-0.394996-4.428869-0.394996-1.947352 0-3.572362 0.118704-4.878101 0.355087-1.304715 0.236384-2.272763 0.355087-2.904143 0.355087-0.99977 0-1.39886-0.578168-1.194198-1.736551 0.102331-0.578168 0.337691-0.947582 0.708128-1.105171s0.989537-0.316202 1.860371-0.473791c1.089821-0.209778 1.87265-0.552585 2.350534-1.026376s0.839111-1.393743 1.080611-2.762927L389.416104 558.565549z" p-id="15378" fill="#ff5722"></path><path d="M466.447525 560.854685c-0.130983 0.737804-0.284479 1.315972-0.464581 1.736551-0.180102 0.421602-0.584308 0.63138-1.215688 0.63138-0.684592 0-1.171686-0.446162-1.460258-1.341554-0.289596-0.89437-0.778736-2.078335-1.465374-3.551896-1.00591-2.052752-3.115967-3.078105-6.325056-3.078105-2.263553 0-3.815909 0.378623-4.660136 1.134847-0.843204 0.756223-1.384533 1.812275-1.623987 3.167133l-1.971911 11.186783c-0.12996 0.730641 0.030699 1.239224 0.479931 1.52575 0.449231 0.287549 1.279133 0.429789 2.489704 0.429789 1.578961 0 2.860141-0.104377 3.844561-0.316202 0.984421-0.209778 1.746784-0.656963 2.289136-1.341554 0.611937-0.788969 1.081635-1.511423 1.408069-2.170432 0.325411-0.656963 0.607844-1.209548 0.845251-1.657756 0.236384-0.446162 0.483001-0.801249 0.73985-1.065262 0.25685-0.261966 0.595564-0.394996 1.017166-0.394996 0.367367 0 0.655939 0.157589 0.86367 0.473791s0.25992 0.763386 0.159636 1.341554c-0.057305 0.316202-0.226151 0.974188-0.50756 1.972934-0.281409 1.000793-0.579191 2.39556-0.895393 4.183276-0.342808 1.947352-0.613984 3.63069-0.811482 5.052063-0.198521 1.420349-0.375553 2.578732-0.533143 3.473101-0.204661 1.158383-0.7552 1.736551-1.648546 1.736551-0.788969 0-1.231037-0.407276-1.323135-1.223874-0.094144-0.814552-0.283456-1.74883-0.571005-2.801812-0.337691-1.367137-0.840134-2.329045-1.506307-2.880607s-1.839905-0.828878-3.524267-0.828878c-0.316202 0-0.63138 0-0.947582 0-0.316202 0-0.662079 0.027629-1.039679 0.078795l-0.896416 0.157589c-0.649799 0.106424-1.031493 0.473791-1.14201 1.105171l-2.183735 12.393261c-0.232291 1.315972-0.38374 2.474354-0.455371 3.473101-0.071631 1.000793 0.032746 1.829671 0.312108 2.486634 0.278339 0.659009 0.795109 1.158383 1.550309 1.500167 0.7552 0.342808 1.816369 0.512676 3.185552 0.512676 1.578961 0 3.096525-0.327458 4.554736-0.986467 1.457188-0.656963 2.735297-1.564635 3.834328-2.723018 0.841158-0.89437 1.526773-1.722224 2.055822-2.486634 0.529049-0.762363 0.977257-1.432629 1.341554-2.012843 0.36532-0.578168 0.722454-1.038656 1.072425-1.381463 0.348947-0.341784 0.733711-0.512676 1.155313-0.512676 0.998747 0 1.355881 0.816598 1.068332 2.446725-0.225127 0.684592-0.446162 1.341554-0.663102 1.972934l-2.116197 6.631024c-0.25378 0.842181-0.577145 1.487887-0.972141 1.934049-0.394996 0.446162-0.960885 0.671289-1.696642 0.671289-0.63138 0-2.51017-0.170892-5.632277-0.512676-3.123131-0.341784-7.553023-0.512676-13.288654-0.512676-3.473101 0-6.205329 0.118704-8.193613 0.355087-1.989307 0.236384-3.194762 0.355087-3.615341 0.355087-1.105171 0-1.556449-0.577145-1.351787-1.731434 0.101307-0.576121 0.36225-0.942465 0.785899-1.100054 0.421602-0.157589 1.121544-0.316202 2.096754-0.473791 1.24741-0.209778 2.125407-0.563842 2.632967-1.061169 0.508583-0.49835 0.87902-1.401929 1.111311-2.714831l6.285147-35.645848c0.202615-1.153266 0.168846-2.00568-0.102331-2.557242-0.271176-0.549515-0.889253-0.931209-1.851161-1.140986-1.016143-0.209778-1.777483-0.366344-2.285043-0.471744-0.508583-0.105401-0.696872-0.524956-0.565888-1.260713 0.193405-1.100054 0.86981-1.651616 2.02717-1.651616 0.26299 0 1.391696 0.093121 3.384074 0.275269 1.9934 0.183172 5.069459 0.275269 9.227152 0.275269 4.630461 0 8.414647-0.116657 11.350512-0.354064 2.935865-0.23536 4.956895-0.354064 6.062066-0.354064 0.788969 0 1.298576 0.093121 1.529843 0.276293 0.230244 0.185218 0.289596 0.592494 0.179079 1.223874l0 0L466.447525 560.854685z" p-id="15379" fill="#ff5722"></path><path d="M481.857493 596.336804c0.414439 1.079588 1.62194 1.617847 3.622504 1.617847 1.89414 0 3.797489-0.499373 5.711072-1.500167 1.912559-0.998747 3.694135-2.446725 5.343705-4.341888 1.64957-1.89414 3.111874-4.223185 4.38896-6.986111 1.276063-2.762927 2.230808-5.932106 2.862187-9.511631 0.611937-3.473101 0.818645-6.591115 0.621147-9.354042-0.197498-2.762927-0.743944-5.103228-1.641383-7.024997-0.89744-1.919722-2.125407-3.394307-3.680832-4.420683-1.556449-1.026376-3.359514-1.539053-5.412266-1.539053-1.210571 0-2.161223 0.093121-2.851954 0.276293-0.690732 0.185218-1.254573 0.473791-1.692548 0.868787-0.437975 0.394996-0.744967 0.868787-0.920976 1.420349s-0.324388 1.171686-0.445138 1.855254l-5.817496 32.994462C481.471706 593.376379 481.443054 595.258239 481.857493 596.336804zM477.270011 558.565549c0.333598-1.89414-0.26299-2.841721-1.787716-2.841721-0.316202 0-0.691755 0.039909-1.125637 0.118704s-0.88823 0.118704-1.362021 0.118704c-0.527003 0-0.715291-0.420579-0.566912-1.26276 0.101307-0.578168 0.688685-1.14508 1.759063-1.696642 1.070378-0.552585 2.498914-1.038656 4.28356-1.460258 1.784646-0.420579 3.872191-0.762363 6.259564-1.026376 2.387373-0.261966 4.976338-0.394996 7.765871-0.394996 4.15667 0 7.797593 0.6191 10.920724 1.855254 3.123131 1.237177 5.630231 2.987031 7.521301 5.249561 1.889023 2.263553 3.172249 4.986571 3.847631 8.170077 0.674359 3.184529 0.673335 6.697539-0.004093 10.538007-0.621147 3.526313-1.795902 6.827499-3.52222 9.906627s-3.911076 5.762237-6.550183 8.051373c-2.641153 2.289136-5.682419 4.092201-9.122775 5.40715-3.442402 1.315972-7.163143 1.972934-11.162224 1.972934-2.316765 0-4.319375-0.132006-6.008854-0.394996-1.689479-0.261966-3.166109-0.394996-4.428869-0.394996-1.947352 0-3.572362 0.118704-4.878101 0.355087-1.304715 0.236384-2.272763 0.355087-2.904143 0.355087-0.99977 0-1.39886-0.578168-1.194198-1.736551 0.102331-0.578168 0.337691-0.947582 0.708128-1.105171s0.989537-0.316202 1.860371-0.473791c1.089821-0.209778 1.87265-0.552585 2.350534-1.026376s0.839111-1.393743 1.080611-2.762927L477.270011 558.565549z" p-id="15380" fill="#ff5722"></path><path d="M541.01994 565.670363c1.750877-3.209088 3.911076-5.985318 6.481621-8.327666 2.570545-2.340301 5.460362-4.183276 8.670473-5.525853 3.209088-1.341554 6.603395-2.012843 10.18292-2.012843 1.578961 0 3.03308 0.106424 4.364401 0.316202 1.331321 0.210801 2.495844 0.473791 3.491521 0.788969 0.9967 0.316202 1.805112 0.659009 2.423189 1.026376 0.6191 0.369414 1.010003 0.684592 1.175779 0.947582 0.076748 0.157589 0.12075 1.026376 0.132006 2.605338s-0.182149 3.500731-0.582261 5.762237c-0.204661 1.158383-0.700965 1.736551-1.489934 1.736551-0.737804 0-1.202385-0.420579-1.39579-1.26276-0.193405-0.841158-0.551562-1.867534-1.074472-3.078105-0.772596-1.89414-1.734504-3.301186-2.88777-4.223185-1.153266-0.919952-2.675946-1.381463-4.571109-1.381463-1.736551 0-3.51915 0.552585-5.344728 1.657756-1.826602 1.105171-3.526313 2.684132-5.097088 4.735861-1.572822 2.052752-2.979868 4.51278-4.222161 7.380084-1.243317 2.869351-2.174526 6.066159-2.795673 9.590426-0.604774 3.421936-0.799202 6.53995-0.584308 9.354042 0.214894 2.816139 0.750083 5.223978 1.608637 7.222495 0.857531 2.000564 2.01796 3.551896 3.480264 4.657067 1.462305 1.105171 3.113921 1.657756 4.956895 1.657756 1.89414 0 3.781116-0.63138 5.661953-1.89414 1.879813-1.26276 3.555989-3.078105 5.025457-5.446036 1.033539-1.683339 1.771343-2.960425 2.214435-3.828188 0.441045-0.868787 0.951675-1.302669 1.531889-1.302669 0.578168 0 0.857531 0.355087 0.838088 1.065262-0.020466 0.710175-0.192382 1.987261-0.51677 3.828188-0.297782 1.685385-0.587378 3.02694-0.868787 4.025687-0.281409 1.000793-0.710175 1.789763-1.285273 2.367931-1.328251 1.26276-3.182482 2.302439-5.562692 3.118014-2.38021 0.815575-5.121648 1.223874-8.226359 1.223874-3.63069 0-6.809079-0.63138-9.534144-1.89414-2.725064-1.26276-4.922103-3.051499-6.592139-5.367241-1.670036-2.314719-2.798742-5.090948-3.38612-8.327666-0.587378-3.236718-0.533143-6.827499 0.163729-10.774391C538.065655 572.353576 539.270087 568.880475 541.01994 565.670363z" p-id="15381" fill="#ff5722"></path><path d="M616.636129 551.816844c2.52552 1.341554 4.635577 3.184529 6.327102 5.525853 1.692548 2.342348 2.860141 5.118578 3.5038 8.327666 0.64366 3.211135 0.63752 6.684236-0.020466 10.419304-0.659009 3.737114-1.877767 7.210215-3.653203 10.419304-1.77646 3.211135-3.925403 5.998621-6.447852 8.367575-2.523473 2.367931-5.323239 4.223185-8.401344 5.564739-3.078105 1.341554-6.248308 2.012843-9.510608 2.012843-3.1569 0-6.000668-0.671289-8.526187-2.012843s-4.632507-3.196809-6.319939-5.564739c-1.687432-2.367931-2.854001-5.15644-3.497661-8.367575-0.64366-3.209088-0.636496-6.682189 0.022513-10.419304 0.657986-3.736091 1.87572-7.209192 3.65218-10.419304 1.77646-3.209088 3.923356-5.985318 6.441713-8.327666 2.517333-2.340301 5.316076-4.183276 8.394181-5.525853s6.248308-2.012843 9.511631-2.012843C611.268888 549.804001 614.109586 550.47529 616.636129 551.816844zM601.944522 554.111097c-1.557472 0.925069-3.00852 2.284019-4.350075 4.078899-1.343601 1.795902-2.536776 4.013407-3.580548 6.652514-1.044796 2.641153-1.864464 5.649674-2.461051 9.029654-0.708128 4.013407-1.010003 7.590885-0.906649 10.732435 0.103354 3.142573 0.541329 5.809309 1.313925 8.000208 0.77055 2.191922 1.832741 3.855818 3.184529 4.989641 1.351787 1.134847 2.89698 1.701758 4.63353 1.701758 1.630127 0 3.238764-0.461511 4.822842-1.38658 1.584078-0.924045 3.046383-2.282996 4.38896-4.078899 1.341554-1.794879 2.535753-4.012384 3.580548-6.652514 1.044796-2.639107 1.86958-5.676279 2.475378-9.108448 0.697895-3.960195 0.981351-7.511067 0.852414-10.653641-0.130983-3.14155-0.583285-5.79396-1.358951-7.958252-0.776689-2.164293-1.838881-3.828188-3.185552-4.990664-1.347694-1.161453-2.889817-1.74269-4.626367-1.74269C605.095281 552.724517 603.50097 553.187051 601.944522 554.111097z" p-id="15382" fill="#ff5722"></path><path d="M653.918243 580.99949c0.090051 0.680499 0.240477 1.02126 0.451278 1.02126 0.26299 0 0.599657-0.418532 1.011027-1.25662l14.139022-27.811416c0.320295-0.62831 0.720408-1.033539 1.200338-1.217734 0.479931-0.182149 1.166569-0.275269 2.061962-0.275269 0.578168 0 1.300622 0.013303 2.163269 0.039909 0.86367 0.026606 1.849114 0.039909 2.954285 0.039909 1.26276 0 2.350534-0.052189 3.263323-0.156566 0.912789-0.104377 1.658779-0.157589 2.238994-0.157589 1.314948 0 1.862417 0.629333 1.64036 1.885953-0.073678 0.419556-0.233314 0.720408-0.474814 0.902556-0.242524 0.184195-0.527003 0.301875-0.852414 0.354064-0.325411 0.053212-0.686638 0.093121-1.086751 0.118704-0.400113 0.025583-0.792039 0.091074-1.178849 0.196475-0.941442 0.260943-1.603521 0.811482-1.988284 1.648546-0.384763 0.839111-0.710175 2.016937-0.978281 3.536546l-0.193405 1.099031-5.094018 32.917714c-0.159636 1.204431-0.10847 2.109034 0.152473 2.710738 0.260943 0.601704 0.800225 0.981351 1.6158 1.137916 0.865717 0.157589 1.515516 0.276293 1.950422 0.355087 0.432859 0.078795 0.576121 0.537236 0.427742 1.3743-0.174985 0.995677-0.763386 1.49198-1.762133 1.49198-0.316202 0-1.192152-0.104377-2.62785-0.316202-1.436722-0.209778-3.524267-0.316202-6.259564-0.316202-2.684132 0-4.79419 0.106424-6.331195 0.316202-1.537006 0.210801-2.489704 0.316202-2.858094 0.316202-0.99977 0-1.412163-0.499373-1.236154-1.500167 0.128937-0.735757 0.428765-1.170662 0.900509-1.302669 0.471744-0.130983 1.140986-0.276293 2.01182-0.433882 0.931209-0.209778 1.632173-0.603751 2.102894-1.183965 0.469698-0.578168 0.811482-1.472538 1.026376-2.684132l4.727675-27.706015c0.101307-0.578168 0.047072-0.868787-0.162706-0.868787-0.157589 0-0.363274 0.264013-0.61296 0.788969l-15.531741 30.785144c-0.554632 1.052982-1.049912 1.842974-1.483794 2.367931-0.435928 0.527003-0.942465 0.788969-1.520633 0.788969-0.737804 0-1.217734-0.261966-1.438769-0.788969-0.223081-0.524956-0.404206-1.288343-0.542352-2.289136l-4.513804-32.600489c-0.094144-0.367367-0.245593-0.552585-0.455371-0.552585-0.106424 0-0.204661 0.264013-0.296759 0.788969l-3.544733 15.628956c-0.202615 0.842181-0.394996 1.789763-0.579191 2.841721-0.186242 1.052982-0.385786 2.184759-0.599657 3.394307l-0.403183 2.289136c-0.463558 2.631944-0.672312 4.631484-0.624217 5.998621 0.048095 1.369184 0.509606 2.263553 1.382487 2.684132 0.436952 0.210801 0.887206 0.342808 1.350764 0.394996 0.463558 0.053212 0.87595 0.106424 1.236154 0.157589 0.35918 0.053212 0.639566 0.171915 0.845251 0.355087 0.204661 0.185218 0.265036 0.512676 0.181125 0.986467-0.195451 1.105171-0.924045 1.657756-2.186805 1.657756-0.527003 0-1.223874-0.078795-2.089591-0.236384-0.867764-0.157589-1.984191-0.236384-3.352351-0.236384-1.526773 0-2.76395 0.078795-3.712555 0.236384-0.949628 0.157589-1.63422 0.236384-2.054799 0.236384-1.105171 0-1.569752-0.497327-1.394766-1.49198 0.119727-0.680499 0.37453-1.086751 0.76748-1.217734 0.391926-0.130983 1.001817-0.301875 1.827625-0.511653 0.605797-0.156566 1.108241-0.326435 1.509377-0.51063 0.401136-0.182149 0.727571-0.471744 0.981351-0.86367 0.252757-0.391926 0.490164-0.915859 0.710175-1.571798 0.221034-0.653893 0.450255-1.50426 0.687662-2.553149l6.383384-28.597315c0.154519-0.576121 0.272199-1.100054 0.356111-1.570775 0.082888-0.471744 0.151449-0.86367 0.207731-1.177825 0.323365-1.832741 0.483001-3.194762 0.483001-4.085038-0.001023-0.890276-0.437975-1.545192-1.310855-1.964748-0.39295-0.156566-0.782829-0.261966-1.167592-0.313132-0.385786-0.051165-0.719384-0.104377-0.998747-0.157589-0.280386-0.051165-0.49528-0.169869-0.647753-0.354064-0.152473-0.182149-0.187265-0.51063-0.103354-0.981351 0.202615-1.152243 0.804319-1.728364 1.805112-1.728364 0.420579 0 1.14508 0.065492 2.175549 0.196475 1.028423 0.130983 2.412956 0.196475 4.149507 0.196475 1.156336 0 2.190899-0.037862 3.099594-0.116657 0.907673-0.078795 1.678222-0.118704 2.310625-0.118704 1.26276 0 1.964748 0.49835 2.104941 1.49198L653.918243 580.99949z" p-id="15383" fill="#ff5722"></path><path d="M708.226127 580.99949c0.090051 0.680499 0.240477 1.02126 0.451278 1.02126 0.26299 0 0.599657-0.418532 1.011027-1.25662l14.139022-27.811416c0.320295-0.62831 0.720408-1.033539 1.200338-1.217734 0.479931-0.182149 1.166569-0.275269 2.061962-0.275269 0.578168 0 1.299599 0.013303 2.163269 0.039909 0.86367 0.026606 1.849114 0.039909 2.954285 0.039909 1.26276 0 2.350534-0.052189 3.263323-0.156566 0.912789-0.104377 1.658779-0.157589 2.238994-0.157589 1.314948 0 1.862417 0.629333 1.64036 1.885953-0.073678 0.419556-0.233314 0.720408-0.474814 0.902556-0.243547 0.184195-0.527003 0.301875-0.852414 0.354064-0.325411 0.053212-0.686638 0.093121-1.086751 0.118704-0.400113 0.025583-0.792039 0.091074-1.178849 0.196475-0.941442 0.260943-1.603521 0.811482-1.988284 1.648546-0.384763 0.839111-0.710175 2.016937-0.978281 3.536546l-0.193405 1.099031-5.094018 32.917714c-0.160659 1.204431-0.10847 2.109034 0.152473 2.710738 0.261966 0.601704 0.800225 0.981351 1.6158 1.137916 0.865717 0.157589 1.515516 0.276293 1.950422 0.355087 0.432859 0.078795 0.576121 0.537236 0.427742 1.3743-0.174985 0.995677-0.763386 1.49198-1.762133 1.49198-0.316202 0-1.192152-0.104377-2.62785-0.316202-1.436722-0.209778-3.524267-0.316202-6.259564-0.316202-2.684132 0-4.79419 0.106424-6.331195 0.316202-1.537006 0.210801-2.490727 0.316202-2.858094 0.316202-0.99977 0-1.412163-0.499373-1.236154-1.500167 0.12996-0.735757 0.429789-1.170662 0.900509-1.302669 0.471744-0.130983 1.140986-0.276293 2.01182-0.433882 0.931209-0.209778 1.63115-0.603751 2.102894-1.183965 0.469698-0.578168 0.811482-1.472538 1.026376-2.684132l4.727675-27.706015c0.101307-0.578168 0.047072-0.868787-0.162706-0.868787-0.157589 0-0.363274 0.264013-0.61296 0.788969l-15.531741 30.785144c-0.554632 1.052982-1.049912 1.842974-1.483794 2.367931-0.435928 0.527003-0.942465 0.788969-1.520633 0.788969-0.737804 0-1.217734-0.261966-1.438769-0.788969-0.223081-0.524956-0.404206-1.288343-0.542352-2.289136l-4.513804-32.600489c-0.094144-0.367367-0.245593-0.552585-0.455371-0.552585-0.106424 0-0.204661 0.264013-0.297782 0.788969l-3.544733 15.628956c-0.202615 0.842181-0.394996 1.789763-0.580215 2.841721-0.186242 1.052982-0.385786 2.184759-0.599657 3.394307l-0.403183 2.289136c-0.463558 2.631944-0.672312 4.631484-0.624217 5.998621 0.048095 1.369184 0.509606 2.263553 1.382487 2.684132 0.435928 0.210801 0.886183 0.342808 1.350764 0.394996 0.463558 0.053212 0.87595 0.106424 1.236154 0.157589 0.35918 0.053212 0.639566 0.171915 0.844228 0.355087 0.204661 0.185218 0.265036 0.512676 0.181125 0.986467-0.195451 1.105171-0.924045 1.657756-2.186805 1.657756-0.527003 0-1.223874-0.078795-2.089591-0.236384-0.86674-0.157589-1.984191-0.236384-3.352351-0.236384-1.526773 0-2.76395 0.078795-3.712555 0.236384-0.949628 0.157589-1.63422 0.236384-2.054799 0.236384-1.105171 0-1.569752-0.497327-1.394766-1.49198 0.119727-0.680499 0.37453-1.086751 0.76748-1.217734 0.391926-0.130983 1.001817-0.301875 1.827625-0.511653 0.605797-0.156566 1.108241-0.326435 1.509377-0.51063 0.401136-0.182149 0.727571-0.471744 0.981351-0.86367 0.252757-0.391926 0.490164-0.915859 0.710175-1.571798 0.221034-0.653893 0.450255-1.50426 0.687662-2.553149l6.384407-28.597315c0.154519-0.576121 0.272199-1.100054 0.356111-1.570775 0.082888-0.471744 0.151449-0.86367 0.206708-1.177825 0.323365-1.832741 0.483001-3.194762 0.483001-4.085038-0.001023-0.890276-0.437975-1.545192-1.310855-1.964748-0.39295-0.156566-0.782829-0.261966-1.168616-0.313132-0.385786-0.051165-0.719384-0.104377-0.998747-0.157589-0.279363-0.051165-0.49528-0.169869-0.647753-0.354064-0.152473-0.182149-0.187265-0.51063-0.103354-0.981351 0.202615-1.152243 0.804319-1.728364 1.804089-1.728364 0.420579 0 1.146103 0.065492 2.175549 0.196475 1.028423 0.130983 2.411933 0.196475 4.149507 0.196475 1.157359 0 2.190899-0.037862 3.099594-0.116657 0.907673-0.078795 1.678222-0.118704 2.310625-0.118704 1.26276 0 1.964748 0.49835 2.104941 1.49198L708.226127 580.99949z" p-id="15384" fill="#ff5722"></path><path d="M775.691681 551.816844c2.52552 1.341554 4.634554 3.184529 6.327102 5.525853 1.692548 2.342348 2.860141 5.118578 3.5038 8.327666 0.64366 3.211135 0.63752 6.684236-0.021489 10.419304-0.657986 3.737114-1.876744 7.210215-3.653203 10.419304-1.77646 3.211135-3.926426 5.998621-6.447852 8.367575-2.523473 2.367931-5.323239 4.223185-8.401344 5.564739s-6.248308 2.012843-9.510608 2.012843c-3.157923 0-5.999644-0.671289-8.526187-2.012843-2.52552-1.341554-4.632507-3.196809-6.319939-5.564739-1.687432-2.367931-2.854001-5.15644-3.497661-8.367575-0.64366-3.209088-0.636496-6.682189 0.022513-10.419304 0.659009-3.736091 1.87572-7.209192 3.65218-10.419304 1.77646-3.209088 3.923356-5.985318 6.441713-8.327666 2.517333-2.340301 5.316076-4.183276 8.394181-5.525853 3.078105-1.341554 6.248308-2.012843 9.511631-2.012843C770.323417 549.804001 773.165138 550.47529 775.691681 551.816844zM761.000074 554.111097c-1.558495 0.925069-3.00852 2.284019-4.350075 4.078899-1.342578 1.795902-2.536776 4.013407-3.580548 6.652514-1.044796 2.641153-1.864464 5.649674-2.460028 9.029654-0.708128 4.013407-1.010003 7.590885-0.906649 10.732435 0.103354 3.142573 0.541329 5.809309 1.312902 8.000208 0.77055 2.191922 1.832741 3.855818 3.184529 4.989641 1.351787 1.134847 2.89698 1.701758 4.63353 1.701758 1.630127 0 3.238764-0.461511 4.821819-1.38658 1.584078-0.924045 3.046383-2.282996 4.38896-4.078899 1.341554-1.794879 2.535753-4.012384 3.580548-6.652514 1.044796-2.639107 1.86958-5.676279 2.475378-9.108448 0.697895-3.960195 0.981351-7.511067 0.852414-10.653641-0.130983-3.14155-0.583285-5.79396-1.358951-7.958252-0.777713-2.164293-1.838881-3.828188-3.185552-4.990664-1.347694-1.161453-2.889817-1.74269-4.626367-1.74269C764.150834 552.724517 762.556523 553.187051 761.000074 554.111097z" p-id="15385" fill="#ff5722"></path><path d="M802.099121 596.336804c0.414439 1.079588 1.62194 1.617847 3.622504 1.617847 1.89414 0 3.797489-0.499373 5.711072-1.500167 1.912559-0.998747 3.694135-2.446725 5.343705-4.341888 1.648546-1.89414 3.111874-4.223185 4.387937-6.986111 1.276063-2.762927 2.230808-5.932106 2.863211-9.511631 0.611937-3.473101 0.818645-6.591115 0.621147-9.354042-0.197498-2.762927-0.743944-5.103228-1.641383-7.024997-0.89744-1.919722-2.125407-3.394307-3.679809-4.420683-1.556449-1.026376-3.359514-1.539053-5.412266-1.539053-1.211595 0-2.161223 0.093121-2.851954 0.276293-0.690732 0.185218-1.254573 0.473791-1.692548 0.868787-0.437975 0.394996-0.744967 0.868787-0.921999 1.420349-0.176009 0.552585-0.324388 1.171686-0.445138 1.855254l-5.817496 32.994462C801.713334 593.376379 801.684682 595.258239 802.099121 596.336804zM797.511639 558.565549c0.332575-1.89414-0.26299-2.841721-1.788739-2.841721-0.316202 0-0.691755 0.039909-1.12666 0.118704s-0.88823 0.118704-1.362021 0.118704c-0.527003 0-0.715291-0.420579-0.566912-1.26276 0.101307-0.578168 0.688685-1.14508 1.759063-1.696642 1.070378-0.552585 2.498914-1.038656 4.28356-1.460258 1.784646-0.420579 3.871167-0.762363 6.259564-1.026376 2.387373-0.261966 4.976338-0.394996 7.766894-0.394996 4.15667 0 7.797593 0.6191 10.9197 1.855254 3.123131 1.237177 5.630231 2.987031 7.521301 5.249561 1.889023 2.263553 3.172249 4.986571 3.847631 8.170077 0.674359 3.184529 0.673335 6.697539-0.004093 10.538007-0.621147 3.526313-1.795902 6.827499-3.52222 9.906627s-3.911076 5.762237-6.550183 8.051373c-2.641153 2.289136-5.682419 4.092201-9.122775 5.40715-3.442402 1.315972-7.163143 1.972934-11.162224 1.972934-2.316765 0-4.319375-0.132006-6.008854-0.394996-1.689479-0.261966-3.166109-0.394996-4.428869-0.394996-1.947352 0-3.573385 0.118704-4.878101 0.355087-1.304715 0.236384-2.272763 0.355087-2.904143 0.355087-0.99977 0-1.39886-0.578168-1.194198-1.736551 0.102331-0.578168 0.337691-0.947582 0.708128-1.105171s0.988514-0.316202 1.860371-0.473791c1.088798-0.209778 1.871627-0.552585 2.350534-1.026376s0.839111-1.393743 1.080611-2.762927L797.511639 558.565549z" p-id="15386" fill="#ff5722"></path><path d="M851.224981 594.165348c-0.204661 1.158383-0.161682 2.026146 0.132006 2.605338 0.292666 0.580215 0.89744 0.947582 1.817392 1.105171 0.865717 0.157589 1.487887 0.290619 1.863441 0.394996 0.375553 0.106424 0.509606 0.473791 0.398066 1.105171-0.214894 1.211595-0.821715 1.815345-1.820462 1.815345-0.36839 0-1.24434-0.105401-2.62785-0.316202-1.38351-0.209778-3.417843-0.316202-6.101975-0.316202s-4.754281 0.106424-6.212492 0.316202c-1.458211 0.209778-2.372024 0.316202-2.739391 0.316202-0.99977 0-1.39886-0.578168-1.194198-1.736551 0.102331-0.578168 0.337691-0.947582 0.708128-1.105171s0.989537-0.316202 1.860371-0.473791c1.088798-0.209778 1.87265-0.552585 2.350534-1.026376 0.478907-0.473791 0.839111-1.393743 1.080611-2.762927l6.304589-35.757388c0.203638-1.156336 0.182149-2.012843-0.061398-2.565429-0.243547-0.552585-0.795109-0.933255-1.65264-1.144056-0.813528-0.157589-1.446955-0.301875-1.89721-0.433882-0.450255-0.130983-0.610914-0.564865-0.479931-1.302669 0.195451-1.105171 0.792039-1.657756 1.791809-1.657756 0.316202 0 1.180895 0.093121 2.595105 0.276293 1.414209 0.185218 3.464915 0.276293 6.148024 0.276293 2.684132 0 4.764514-0.091074 6.245238-0.276293 1.479701-0.183172 2.378164-0.276293 2.693342-0.276293 0.998747 0 1.397836 0.580215 1.192152 1.736551-0.102331 0.580215-0.312108 0.947582-0.629333 1.105171-0.317225 0.157589-0.87902 0.290619-1.687432 0.394996-1.187035 0.157589-2.046612 0.487094-2.581802 0.986467-0.535189 0.50142-0.924045 1.434675-1.165546 2.801812L851.224981 594.165348z" p-id="15387" fill="#ff5722"></path><path d="M890.329605 554.145889c-0.264013 0-0.527003 0.225127-0.788969 0.671289-0.264013 0.448208-0.418532 0.803295-0.463558 1.065262l-6.750751 38.283931c-0.204661 1.158383-0.161682 2.026146 0.132006 2.605338 0.291642 0.580215 0.89744 0.947582 1.817392 1.105171 0.865717 0.157589 1.487887 0.290619 1.863441 0.394996 0.376577 0.106424 0.509606 0.473791 0.399089 1.105171-0.214894 1.211595-0.821715 1.815345-1.820462 1.815345-0.369414 0-1.24434-0.105401-2.628874-0.316202-1.38351-0.209778-3.417843-0.316202-6.100952-0.316202s-4.754281 0.106424-6.212492 0.316202c-1.457188 0.209778-2.372024 0.316202-2.739391 0.316202-1.000793 0-1.39886-0.578168-1.194198-1.736551 0.102331-0.578168 0.337691-0.947582 0.708128-1.105171s0.988514-0.316202 1.860371-0.473791c1.088798-0.209778 1.87265-0.552585 2.350534-1.026376 0.477884-0.473791 0.839111-1.393743 1.080611-2.762927l6.723122-38.125319c0.054235-0.316202 0.029676-0.696872-0.075725-1.14508-0.105401-0.446162-0.289596-0.671289-0.552585-0.671289l-0.947582 0c-1.211595 0-2.348488 0.408299-3.412726 1.223874-1.065262 0.816598-2.12029 1.803066-3.166109 2.960425-1.50733 1.685385-2.594081 3.065825-3.257184 4.14439-0.664126 1.079588-1.338485 1.617847-2.022053 1.617847-0.737804 0-1.026376-0.446162-0.867764-1.341554 0.083911-0.473791 0.451278-1.511423 1.102101-3.118014 0.650823-1.604544 1.544169-3.985778 2.680039-7.143701 0.547469-1.314948 1.001817-2.472308 1.362021-3.473101 0.360204-0.998747 0.857531-1.500167 1.488911-1.500167 0.26299 0 0.456395 0.093121 0.582261 0.276293 0.125867 0.185218 0.216941 0.408299 0.276293 0.671289 0.059352 0.264013 0.107447 0.512676 0.144286 0.750083 0.036839 0.236384 0.103354 0.382717 0.199545 0.433882 0.055259 0.580215 0.200568 0.947582 0.436952 1.105171 0.23536 0.157589 0.590448 0.236384 1.064238 0.236384 0.316202 0 0.672312-0.01228 1.071402-0.039909 0.400113-0.025583 0.88823-0.039909 1.467421-0.039909l16.971533 0c1.99954 0 3.614317-0.051165 4.842285-0.157589 1.227967-0.104377 1.990331-0.394996 2.284019-0.868787 0.316202 0 0.577145-0.144286 0.786922-0.433882 0.209778-0.288572 0.425695-0.618077 0.648776-0.986467 0.222057-0.367367 0.464581-0.696872 0.726547-0.986467 0.261966-0.288572 0.602727-0.433882 1.02433-0.433882 0.367367 0 0.615007 0.236384 0.74292 0.710175 0.12689 0.473791 0.167822 0.842181 0.12075 1.105171-0.213871 1.211595-0.607844 2.77623-1.182942 4.696975-0.576121 1.921769-1.198292 4.329609-1.866511 7.222495-0.309038 1.158383-0.62524 2.052752-0.947582 2.684132-0.322341 0.63138-0.771573 0.947582-1.350764 0.947582-0.684592 0-1.070378-0.499373-1.157359-1.500167-0.085958-0.998747-0.379647-2.472308-0.877997-4.420683-0.356111-1.26276-0.870834-2.301416-1.541099-3.118014-0.672312-0.814552-1.718131-1.223874-3.139503-1.223874L890.329605 554.145889z" p-id="15388" fill="#ff5722"></path><path d="M913.90044 594.165348c-0.204661 1.158383-0.161682 2.026146 0.132006 2.605338 0.291642 0.580215 0.89744 0.947582 1.817392 1.105171 0.865717 0.157589 1.486864 0.290619 1.863441 0.394996 0.376577 0.106424 0.509606 0.473791 0.398066 1.105171-0.214894 1.211595-0.821715 1.815345-1.820462 1.815345-0.36839 0-1.24434-0.105401-2.62785-0.316202-1.38351-0.209778-3.417843-0.316202-6.100952-0.316202s-4.754281 0.106424-6.212492 0.316202c-1.457188 0.209778-2.372024 0.316202-2.739391 0.316202-0.99977 0-1.39886-0.578168-1.193175-1.736551 0.102331-0.578168 0.337691-0.947582 0.708128-1.105171s0.988514-0.316202 1.860371-0.473791c1.088798-0.209778 1.871627-0.552585 2.350534-1.026376s0.839111-1.393743 1.080611-2.762927l6.305613-35.757388c0.203638-1.156336 0.182149-2.012843-0.061398-2.565429-0.24457-0.552585-0.795109-0.933255-1.65264-1.144056-0.813528-0.157589-1.446955-0.301875-1.89721-0.433882-0.450255-0.130983-0.60989-0.564865-0.479931-1.302669 0.194428-1.105171 0.792039-1.657756 1.791809-1.657756 0.316202 0 1.180895 0.093121 2.595105 0.276293 1.415232 0.185218 3.464915 0.276293 6.148024 0.276293s4.764514-0.091074 6.245238-0.276293c1.479701-0.183172 2.37714-0.276293 2.693342-0.276293 0.998747 0 1.396813 0.580215 1.192152 1.736551-0.102331 0.580215-0.312108 0.947582-0.629333 1.105171-0.317225 0.157589-0.87902 0.290619-1.687432 0.394996-1.186012 0.157589-2.045589 0.487094-2.581802 0.986467-0.535189 0.50142-0.924045 1.434675-1.165546 2.801812L913.90044 594.165348z" p-id="15389" fill="#ff5722"></path><path d="M961.451432 560.854685c-0.130983 0.737804-0.284479 1.315972-0.464581 1.736551-0.180102 0.421602-0.584308 0.63138-1.216711 0.63138-0.684592 0-1.171686-0.446162-1.460258-1.341554-0.289596-0.89437-0.777713-2.078335-1.465374-3.551896-1.00591-2.052752-3.115967-3.078105-6.325056-3.078105-2.263553 0-3.815909 0.378623-4.659113 1.134847-0.843204 0.756223-1.385557 1.812275-1.623987 3.167133l-1.971911 11.186783c-0.128937 0.730641 0.030699 1.239224 0.479931 1.52575 0.449231 0.287549 1.279133 0.429789 2.490727 0.429789 1.577938 0 2.860141-0.104377 3.844561-0.316202 0.984421-0.209778 1.746784-0.656963 2.289136-1.341554 0.611937-0.788969 1.081635-1.511423 1.409093-2.170432 0.325411-0.656963 0.607844-1.209548 0.845251-1.657756 0.236384-0.446162 0.483001-0.801249 0.73985-1.065262 0.25685-0.261966 0.595564-0.394996 1.017166-0.394996 0.367367 0 0.655939 0.157589 0.86367 0.473791 0.206708 0.316202 0.260943 0.763386 0.159636 1.341554-0.056282 0.316202-0.226151 0.974188-0.506537 1.972934-0.281409 1.000793-0.580215 2.39556-0.895393 4.183276-0.342808 1.947352-0.613984 3.63069-0.811482 5.052063-0.198521 1.420349-0.376577 2.578732-0.533143 3.473101-0.204661 1.158383-0.7552 1.736551-1.64957 1.736551-0.788969 0-1.231037-0.407276-1.323135-1.223874-0.094144-0.814552-0.283456-1.74883-0.571005-2.801812-0.337691-1.367137-0.840134-2.329045-1.506307-2.880607-0.666172-0.552585-1.839905-0.828878-3.523243-0.828878-0.316202 0-0.63138 0-0.947582 0s-0.662079 0.027629-1.039679 0.078795l-0.896416 0.157589c-0.649799 0.106424-1.031493 0.473791-1.14201 1.105171l-2.184759 12.393261c-0.232291 1.315972-0.38374 2.474354-0.455371 3.473101-0.071631 1.000793 0.032746 1.829671 0.312108 2.486634 0.279363 0.659009 0.796132 1.158383 1.550309 1.500167 0.7552 0.342808 1.816369 0.512676 3.185552 0.512676 1.578961 0 3.097548-0.327458 4.554736-0.986467 1.457188-0.656963 2.735297-1.564635 3.834328-2.723018 0.841158-0.89437 1.526773-1.722224 2.055822-2.486634 0.529049-0.762363 0.977257-1.432629 1.341554-2.012843 0.36532-0.578168 0.722454-1.038656 1.072425-1.381463 0.348947-0.341784 0.733711-0.512676 1.155313-0.512676 0.998747 0 1.355881 0.816598 1.068332 2.446725-0.226151 0.684592-0.446162 1.341554-0.664126 1.972934l-2.116197 6.631024c-0.25378 0.842181-0.577145 1.487887-0.972141 1.934049-0.394996 0.446162-0.960885 0.671289-1.696642 0.671289-0.63138 0-2.51017-0.170892-5.632277-0.512676-3.123131-0.341784-7.553023-0.512676-13.287631-0.512676-3.473101 0-6.205329 0.118704-8.193613 0.355087-1.989307 0.236384-3.194762 0.355087-3.615341 0.355087-1.105171 0-1.556449-0.577145-1.351787-1.731434 0.101307-0.576121 0.363274-0.942465 0.785899-1.100054 0.421602-0.157589 1.12052-0.316202 2.096754-0.473791 1.246387-0.209778 2.125407-0.563842 2.632967-1.061169 0.508583-0.49835 0.87902-1.401929 1.111311-2.714831l6.285147-35.645848c0.202615-1.153266 0.168846-2.00568-0.102331-2.557242-0.271176-0.549515-0.889253-0.931209-1.851161-1.140986-1.016143-0.209778-1.777483-0.366344-2.285043-0.471744s-0.696872-0.524956-0.565888-1.260713c0.193405-1.100054 0.868787-1.651616 2.02717-1.651616 0.26299 0 1.391696 0.093121 3.384074 0.275269 1.9934 0.183172 5.068436 0.275269 9.226129 0.275269 4.630461 0 8.413624-0.116657 11.350512-0.354064 2.935865-0.23536 4.956895-0.354064 6.062066-0.354064 0.788969 0 1.298576 0.093121 1.529843 0.276293 0.230244 0.185218 0.289596 0.592494 0.179079 1.223874l0 0L961.451432 560.854685z" p-id="15390" fill="#ff5722"></path><path d="M994.269885 562.749848c-0.194428 1.105171-0.661056 1.657756-1.396813 1.657756-0.684592 0-1.115404-0.394996-1.291412-1.183965-0.176009-0.788969-0.363274-1.815345-0.562818-3.078105-0.347924-2.210341-0.868787-3.880377-1.562589-5.012154-0.695848-1.130753-2.068102-1.696642-4.120854-1.696642-1.89414 0-3.571339 0.63138-5.030573 1.89414-1.460258 1.26276-2.365884 2.894933-2.717901 4.894474-0.2415 1.369184-0.208754 2.446725 0.100284 3.236718 0.308015 0.788969 0.793062 1.474584 1.454118 2.052752 0.661056 0.580215 1.463328 1.105171 2.40477 1.578961s1.937119 1.026376 2.982938 1.657756c1.76111 1.052982 3.266393 2.14485 4.513804 3.275603 1.246387 1.1328 2.243087 2.342348 2.990101 3.63069 0.74599 1.290389 1.235131 2.697435 1.466398 4.223185 0.231267 1.526773 0.179079 3.236718-0.153496 5.130857-0.436952 2.474354-1.263783 4.77577-2.481518 6.907317-1.218758 2.131547-2.727111 3.974521-4.526083 5.525853-1.801019 1.553379-3.818979 2.77623-6.053879 3.670599-2.235924 0.89437-4.590552 1.341554-7.063883 1.341554-1.26276 0-2.441609-0.105401-3.535523-0.316202-1.094938-0.210801-2.098801-0.487094-3.01159-0.828878-0.912789-0.342808-1.689479-0.710175-2.331092-1.105171-0.641613-0.394996-1.112334-0.775666-1.416256-1.14508-0.390903-0.473791-0.563842-1.065262-0.51677-1.77646 0.047072-0.710175 0.191358-1.74883 0.432859-3.118014l1.167592-6.631024c0.204661-1.156336 0.780783-1.736551 1.728364-1.736551 0.73678 0 1.087774 0.540306 1.056052 1.617847-0.031722 1.079588 0.056282 2.51324 0.268106 4.301979 0.48607 4.999874 2.807952 7.498788 6.965645 7.498788 2.63092 0 4.854565-0.750083 6.671956-2.249227 1.816369-1.500167 2.938935-3.459798 3.365654-5.880941 0.232291-1.314948 0.23536-2.459005 0.01228-3.433192-0.223081-0.973164-0.64366-1.867534-1.26276-2.684132-0.6191-0.814552-1.442862-1.591241-2.470261-2.329045-1.028423-0.735757-2.235924-1.500167-3.622504-2.289136-1.62194-0.947582-3.028986-1.919722-4.220115-2.920516-1.192152-0.998747-2.131547-2.091638-2.817162-3.275603-0.685615-1.183965-1.140986-2.486634-1.363044-3.906983-0.223081-1.420349-0.172939-3.051499 0.152473-4.894474 0.398066-2.261507 1.175779-4.353145 2.330068-6.274914 1.154289-1.919722 2.561335-3.564175 4.224208-4.933359 1.662873-1.367137 3.494591-2.433422 5.497201-3.196809 2.00261-0.762363 4.030803-1.144056 6.083555-1.144056 2.157129 0 4.004197 0.264013 5.544273 0.788969 1.538029 0.527003 2.550079 1.052982 3.036149 1.578961 0.346901 0.421602 0.533143 0.856507 0.559748 1.302669 0.025583 0.448208-0.025583 1.039679-0.155543 1.77646l-0.13917 0.788969L994.269885 562.749848z" p-id="15391" fill="#ff5722"></path><path d="M339.554486 473.079572l-34.099632 0 0 7.051603 34.099632 0 0 28.206412-42.835597 0 0 7.472182 93.354178 0 0-7.472182-42.835597 0 0-28.206412 34.099632 0 0-7.051603-34.099632 0 0-24.838711 39.151695 0 0-7.472182-43.361577 0 4.104481-1.578961c-1.544169-5.191232-3.578502-10.698666-6.104021-16.523325l-7.366781 1.99954c2.595105 5.333472 4.770653 10.700713 6.525624 16.102746l-39.783075 0 0 7.472182 39.151695 0L339.555509 473.079572z" p-id="15392" fill="#ff5722"></path><path d="M440.801425 464.554408c-5.26184 2.456958-10.280134 4.630461-15.050788 6.525624l0-21.575388 13.681604 0 0-7.262404-13.681604 0 0-19.049868-7.788383 0 0 19.049868-16.523325 0 0 7.262404 16.523325 0 0 24.311709c-5.54325 1.75497-11.613502 3.367701-18.207687 4.841262l1.89414 7.157004c3.086291-0.842181 8.525164-2.454912 16.313547-4.841262l0 26.52205c0 2.665713-1.36816 3.999081-4.104481 3.999081-1.964748 0-5.333472-0.141216-10.104125-0.420579l1.684362 7.366781 11.050684 0c6.173606 0 9.261944-2.982938 9.261944-8.945743l0-31.257911c5.752004-2.173502 10.769274-4.209882 15.050788-6.104021L440.801425 464.554408zM442.695564 438.452937l27.995611 0 0 68.094888c0 3.226484-1.438769 4.841262-4.315282 4.841262-3.228531 0-8.630564-0.141216-16.208147-0.420579l1.578961 7.262404 17.260106 0c6.314823 0 9.471722-3.2623 9.471722-9.787924l0-69.989027 17.050328 0 0-7.366781-52.834322 0L442.694541 438.452937z" p-id="15393" fill="#ff5722"></path><path d="M573.833277 469.921649l0 14.208607-18.733667 0 0-14.208607L573.833277 469.921649zM573.833277 491.181859l0 15.682167-18.733667 0 0-15.682167L573.833277 491.181859zM600.776929 514.125407l0-7.262404-19.470447 0 0-15.682167 16.208147 0 0-7.051603-16.208147 0 0-14.208607 16.208147 0 0-7.157004-16.208147 0 0-14.314007 18.313088 0 0-7.366781-20.101827 0 2.841721-1.052982c-1.403976-5.331425-3.332908-11.085476-5.788843-17.260106l-7.262404 1.99954c2.52552 5.40408 4.594645 10.840906 6.209422 16.313547L556.467771 441.082834c2.454912-5.683443 4.420683-11.190877 5.894244-16.523325l-7.366781-1.473561c-3.64911 13.823843-9.718339 26.348088-18.207687 37.572734l2.52552 7.999185c3.226484-3.928472 5.998621-7.717775 8.314363-11.366885l0 61.674665 7.472182 0 0-4.841262L600.776929 514.124384zM573.833277 462.764646l-18.733667 0 0-14.314007 18.733667 0L573.833277 462.764646zM537.943882 466.237747c-2.596128 1.26276-5.859451 2.772136-9.787924 4.526083l0-21.26021 10.630105 0 0-7.366781-10.630105 0 0-19.470447-7.682983 0 0 19.470447-13.471826 0 0 7.366781 13.471826 0 0 24.206308c-5.052063 1.75497-10.069333 3.193739-15.050788 4.315282l1.89414 7.577582c3.367701-0.981351 7.752568-2.384303 13.155624-4.209882l0 25.574469c0 2.595105-1.438769 3.89368-4.315282 3.89368-2.456958 0-5.333472-0.176009-8.630564-0.525979l1.578961 7.366781 9.682523 0c6.244214 0 9.367345-2.947122 9.367345-8.840342l0-30.521131c3.367701-1.402953 6.631024-2.876514 9.787924-4.420683L537.942859 466.237747z" p-id="15394" fill="#ff5722"></path><path d="M613.511975 437.505355l23.89113 0 0 7.577582 7.788383 0 0-7.577582 27.78481 0 0 7.682983 7.788383 0 0-7.682983 23.89113 0 0-6.946202-23.89113 0 0-7.577582-7.788383 0 0 7.577582-27.78481 0 0-7.577582-7.788383 0 0 7.577582-23.89113 0L613.511975 437.505355zM614.880135 459.187167l25.679869 0c-6.877641 10.665921-16.560164 20.101827-29.04757 28.311813l4.735861 6.104021c5.542226-3.789303 10.383488-7.541767 14.523785-11.261485l0 37.257555 7.262404 0 0-44.624337c4.420683-5.052063 8.173147-10.313903 11.261485-15.786545l54.833863 0 0-6.946202-51.360761 0 1.36816-3.367701c0.560772-1.402953 0.981351-2.52552 1.26276-3.367701l-7.366781-1.26276c-0.912789 2.38635-2.070148 5.052063-3.473101 7.999185l-29.679973 0L614.880135 459.187167zM674.448836 489.287719l-29.04757 0 0 7.157004 29.04757 0 0 12.103666c0 2.52552-1.299599 3.789303-3.89368 3.789303-2.246157 0-6.070252-0.176009-11.472286-0.525979l2.210341 7.366781 12.313443 0c5.612834 0 8.419763-2.841721 8.419763-8.525164l0-14.208607 23.154349 0 0-7.157004L682.027441 489.287719l0-4.420683c5.472642-3.857864 10.909467-7.893784 16.313547-12.103666l0-5.472642-45.361117 0 0 6.946202 34.626635 0c-5.824659 3.859911-10.208503 6.701632-13.155624 8.525164L674.450882 489.287719z" p-id="15395" fill="#ff5722"></path></svg>