<?xml version="1.0" standalone="no"?><!DOCTYPE svg PUBLIC "-//W3C//DTD SVG 1.1//EN" "http://www.w3.org/Graphics/SVG/1.1/DTD/svg11.dtd"><svg t="1527251999274" class="icon" style="" viewBox="0 0 1024 1024" version="1.1" xmlns="http://www.w3.org/2000/svg" p-id="2573" xmlns:xlink="http://www.w3.org/1999/xlink" width="32" height="32"><defs><style type="text/css"></style></defs><path d="M326.4 838.4l352-352c12.8-12.8 32-12.8 44.8 0l0 0c12.8 12.8 12.8 32 0 44.8l-352 352c-12.8 12.8-32 12.8-44.8 0l0 0C313.6 876.8 313.6 851.2 326.4 838.4z" p-id="2574" fill="#ff5722"></path><path d="M678.4 531.2 326.4 185.6c-12.8-12.8-12.8-32 0-44.8l0 0C339.2 128 358.4 128 371.2 134.4l352 352c12.8 12.8 12.8 32 0 44.8l0 0C710.4 544 684.8 544 678.4 531.2z" p-id="2575" fill="#ff5722"></path></svg>