<?xml version="1.0" standalone="no"?><!DOCTYPE svg PUBLIC "-//W3C//DTD SVG 1.1//EN" "http://www.w3.org/Graphics/SVG/1.1/DTD/svg11.dtd"><svg t="1527250752294" class="icon" style="" viewBox="0 0 1024 1024" version="1.1" xmlns="http://www.w3.org/2000/svg" p-id="1693" xmlns:xlink="http://www.w3.org/1999/xlink" width="32" height="32"><defs><style type="text/css"></style></defs><path d="M889.998 466.838c10.219 0.568 57.554 1.091 67.949 1.747l-80.177-275.551h-1.399c13.714-5.939 23.233-17.685 23.233-31.353v-20.786c0-19.694-19.564-35.722-43.583-35.722h-689.837c-24.018 0-43.537 15.983-43.537 35.722v20.787c0 13.668 9.431 25.328 23.188 31.353h-1.398l-78.822 280.879c0.479-0.087 47.381-1.572 66.507-3.755v383.153h-33.493v62.445h823.509v-62.445h-32.14v-386.472h-0.001zM656.457 228.754l14.846 210.877c-37.598-1.091-72.971-1.791-106.595-2.228l-4.498-208.65c0-13.712 9.474-25.417 23.23-31.399h49.74c13.799 5.983 23.276 17.775 23.276 31.399zM474.749 228.754l-4.455 208.125c-38.778 0.175-74.148 0.698-106.553 1.484l14.762-209.611c0-13.712 9.475-25.417 23.23-31.399h49.87c13.714 5.984 23.146 17.776 23.146 31.4zM198.85 228.754c0-13.625 9.476-25.417 23.233-31.399h49.782c13.711 5.983 23.231 17.774 23.231 31.399l-24.105 212.929c-45.11 2.184-80.787 4.891-107.775 7.337l35.632-220.267zM575.58 690.422h-370.399v-171.705h370.399v171.705zM813.316 814.79h-143.848v-296.074h143.848v296.074zM764.057 442.819l-24.15-214.065c0-13.712 9.475-25.417 23.188-31.399h49.87c13.623 5.983 23.142 17.774 23.142 31.399l35.462 219.13c-37.381-1.922-73.191-3.58-107.513-5.066z" p-id="1694" fill="#ff5722"></path></svg>