<?xml version="1.0" standalone="no"?><!DOCTYPE svg PUBLIC "-//W3C//DTD SVG 1.1//EN" "http://www.w3.org/Graphics/SVG/1.1/DTD/svg11.dtd"><svg t="1527790314478" class="icon" style="" viewBox="0 0 1024 1024" version="1.1" xmlns="http://www.w3.org/2000/svg" p-id="1397" xmlns:xlink="http://www.w3.org/1999/xlink" width="32" height="32"><defs><style type="text/css"></style></defs><path d="M512 972.8a460.8 460.8 0 1 0 0-921.6 460.8 460.8 0 0 0 0 921.6z m0 51.2C229.2224 1024 0 794.7776 0 512S229.2224 0 512 0s512 229.2224 512 512-229.2224 512-512 512z m320-776.96l13.824 16.896a27.1872 27.1872 0 0 0-38.4 0l-411.5456 413.696-156.7744-162.304a29.44 29.44 0 0 0-40.2432 0c-10.5472 10.5472-8.704 27.8528 1.792 38.6048l176.2304 181.76a27.1872 27.1872 0 0 0 40.96-3.072l428.1344-430.1824a27.1872 27.1872 0 0 0-0.1536-38.5024l-13.824-16.896z" p-id="1398" fill="#ff5722"></path></svg>